<?xml version="1.0" encoding="UTF-8" standalone="no"?>
<svg
   id="Camada_1"
   viewBox="0 0 1920 1627"
   version="1.1"
   sodipodi:docname="ed_logo.svg"
   inkscape:version="1.2.1 (9c6d41e410, 2022-07-14)"
   xmlns:inkscape="http://www.inkscape.org/namespaces/inkscape"
   xmlns:sodipodi="http://sodipodi.sourceforge.net/DTD/sodipodi-0.dtd"
   xmlns="http://www.w3.org/2000/svg"
   xmlns:svg="http://www.w3.org/2000/svg">
  <sodipodi:namedview
     id="namedview16"
     pagecolor="#ffffff"
     bordercolor="#000000"
     borderopacity="0.25"
     inkscape:showpageshadow="2"
     inkscape:pageopacity="0.0"
     inkscape:pagecheckerboard="0"
     inkscape:deskcolor="#d1d1d1"
     showgrid="false"
     inkscape:zoom="0.47879533"
     inkscape:cx="960.74454"
     inkscape:cy="812.45571"
     inkscape:window-width="1920"
     inkscape:window-height="1008"
     inkscape:window-x="0"
     inkscape:window-y="0"
     inkscape:window-maximized="1"
     inkscape:current-layer="Camada_1" />
  <defs
     id="defs7">
    <style
       id="style2">.cls-1{fill:#722267;}.cls-2{clip-path:url(#clippath);}.cls-3{fill:none;}</style>
    <clipPath
       id="clippath">
      <polygon
         class="cls-3"
         points="1786.66 1095.1 1650.08 1138.24 1659.88 1253.92 1817.3 1263.73 1786.66 1095.1"
         id="polygon4" />
    </clipPath>
  </defs>
  <path
     class="cls-1"
     d="M 778.23102,834.25216 C 768.89106,800.99925 752.16525,775.08253 726.67081,755.64084 621.48863,675.40662 450.3637,713.07282 416.38215,866.63565 c -15.09463,68.19494 17.0239,139.27965 81.16159,182.34445 51.89142,34.8427 109.23943,45.4827 170.65297,38.3535 121.87486,-14.1507 206.95294,-80.0438 263.26594,-186.43488 35.75349,-67.5491 74.58715,-132.87912 127.06645,-189.35772 96.5295,-103.90704 256.7329,-139.33761 382.5823,-82.83417 22.0913,9.91956 42.5183,23.53206 65.4956,36.44074 0,-4.38846 0,-8.79347 0,-13.19849 0,-56.18051 -0.149,-112.3693 0.083,-168.54982 0.1159,-28.21032 17.2557,-49.76343 43.7355,-56.06459 24.6085,-5.86231 50.1692,5.28271 61.6206,28.26828 3.8585,7.75018 6.326,17.09842 6.3508,25.71801 0.3643,142.81525 0.8114,285.6305 0.066,428.44575 -0.7866,151.60879 -114.8947,275.42119 -265.2117,289.49739 -109.1649,10.2176 -202.9371,-23.2423 -281.9376,-98.7403 -10.8552,-10.375 -21.5117,-20.9735 -31.9115,-31.8122 -22.7289,-23.6976 -22.7869,-57.0416 -0.3975,-79.49725 22.1245,-22.19071 55.7168,-21.87606 79.7623,0.48852 20.0875,18.67993 38.6598,39.58723 60.9415,55.18693 70.9274,49.6806 147.7834,61.2065 227.3386,23.2836 73.9331,-35.2401 108.8586,-114.50557 97.6556,-189.29148 -16.6182,-110.95341 -107.2108,-175.99363 -220.5406,-162.91935 -71.2255,8.21387 -124.4997,45.17626 -167.8295,99.48547 -35.7204,44.77053 -62.9205,94.79892 -90.162,144.91012 C 958.68763,1084.5101 857.54615,1164.9596 717.33085,1192.3502 610.17801,1213.274 509.18557,1198.7258 420.3152,1131.5659 341.97712,1072.3714 298.90402,993.36268 301.22245,894.10904 305.2383,722.39622 454.47891,589.99734 625.95989,603.87479 c 85.99717,6.96357 159.5245,38.76745 213.54391,108.37002 41.86421,53.94488 59.60848,115.90491 58.1843,183.51197 -0.57133,27.10906 -24.95624,50.19399 -53.96973,50.36788 -96.62054,0.5796 -193.24937,0.67896 -289.86164,-0.0414 -31.30707,-0.23185 -55.37734,-26.68678 -54.83913,-56.75184 0.54649,-30.73575 25.76769,-54.95506 57.83653,-55.0213 68.27775,-0.14076 136.56378,-0.0414 204.84152,-0.0497 4.67826,0 9.35652,0 16.54365,0 z"
     id="path9"
     style="stroke-width:0.82801" />
</svg>
