<?xml version="1.0" encoding="UTF-8"?><svg id="Camada_1" xmlns="http://www.w3.org/2000/svg" viewBox="0 0 1920 1627"><defs><style>.cls-1{fill:#f4964a;}.cls-2{fill:#f6a462;}.cls-3{fill:#fff;}.cls-4{fill:#f8b379;}.cls-5{fill:#b6b6b7;}.cls-6{fill:#f39042;}.cls-7{fill:#f59f59;}.cls-8{fill:#7d7d82;}.cls-9{fill:#aaaaab;}.cls-10{fill:#f0822a;}.cls-11{fill:#f5a25e;}.cls-12{fill:#a6a7a8;}.cls-13{fill:#f39143;}.cls-14{fill:#9a9a9c;}.cls-15{fill:#7e7e82;}.cls-16{fill:#f28b39;}.cls-17{fill:#aeaeb0;}.cls-18{fill:#f28d3c;}.cls-19{fill:#f28a36;}.cls-20{fill:#7f7f84;}.cls-21{fill:#b2b2b3;}.cls-22{fill:#bdbdbd;}.cls-23{fill:#a09ea0;}.cls-24{fill:#f5a25d;}.cls-25{fill:#838387;}.cls-26{fill:#8a8a8d;}.cls-27{fill:#a4a4a6;}.cls-28{fill:#7d7e82;}.cls-29{fill:#f49a51;}.cls-30{fill:#909093;}.cls-31{fill:#ef7a21;}.cls-32{fill:#fdfdfd;}.cls-33{fill:#949497;}.cls-34{fill:#f6a767;}.cls-35{fill:#f7ae71;}.cls-36{fill:#f39549;}.cls-37{fill:#f7ab6c;}.cls-38{fill:#8d8d90;}.cls-39{fill:#f1852f;}.cls-40{fill:#86868a;}.cls-41{fill:#a3a3a5;}.cls-42{fill:#f7ac6e;}.cls-43{fill:#939395;}.cls-44{fill:#ef7d25;}.cls-45{fill:#ee731c;}.cls-46{fill:#7d7d81;}.cls-47{fill:#f49a52;}.cls-48{fill:#b9b9ba;}.cls-49{fill:#a2a2a3;}.cls-50{fill:#969699;}</style></defs><path class="cls-8" d="M1085.76,836.36c2.12,43,25.14,70.58,69.4,71.05,2.52,.74,5.15-.12,7.68,.49,.48-.01,.96-.03,1.44-.04,2.77-.51,5.61,.27,8.38-.44,11.66,.3,22.93-1.93,34.06-5.12,4.42-1.26,8.81-2.61,13.01-4.49,2.25-1,2.9-.26,3.26,2,1.45,9.21,3.04,18.41,4.67,27.59,.51,2.89-.14,4.68-3.2,5.78-11.29,4.07-22.88,6.83-34.68,8.86-5.31,.91-10.68,1.26-16.04,1.68-1.17,.34-2.44-.14-3.59,.41-7.14,0-14.28,0-21.41,0-1.15-.57-2.44-.02-3.6-.46-11.52-.6-22.81-2.62-33.71-6.35-11.49-3.93-22.23-9.52-31.63-17.21-12.82-10.49-21.91-23.75-28.16-39.1-3.93-9.66-6.52-19.66-8.11-29.85-1.82-11.7-1.91-23.58-1.44-35.43,.03-.79-.04-1.58-.07-2.37,.61-1.13,0-2.43,.49-3.58,.75-13.69,3.81-26.87,9.01-39.54,4.18-10.18,9.36-19.76,16.41-28.31,9.89-11.99,21.52-21.63,35.89-27.83,11.68-5.04,23.87-7.97,36.54-8.94,1.39-.44,2.89,.18,4.26-.45,2.14,0,4.29,0,6.43,0,1.6,.67,3.32-.02,4.94,.45,14.04,1.13,27.68,3.82,40.27,10.45,16.83,8.87,28.8,22.19,36.34,39.65,5.68,13.15,8.63,26.87,10.29,41.04,1.52,13.02,1.14,26.03,1.21,39.06-1.08,1.26-2.52,.63-3.78,.63-50.18,.04-100.37,.03-150.55,.05-1.34,0-2.73-.35-4.02,.33Z"/><path class="cls-8" d="M1662.15,705.12c17.12,1.46,34.1,3.69,50.55,8.98,2.54,.82,2.96,1.71,2.34,4.29-2.31,9.73-4.36,19.53-6.32,29.35-.47,2.34-1.11,2.72-3.28,1.78-9.18-4-18.7-6.82-28.67-8.15-3.87-.52-7.67-1.54-11.62-1.31-1.38-.63-2.9,.04-4.29-.48-13.22-.56-26.22,.33-38.11,6.9-7.29,4.03-11.89,9.95-11.85,18.71-.45,1.5-.45,3,0,4.49-.13,10.08,5.33,16.96,13.09,22.37,8.87,6.18,18.97,9.82,28.97,13.66,16.08,6.18,32.4,11.77,47.16,20.97,14.38,8.97,23.59,21.42,26.72,38.16,.48,2.55,.71,5.15,1.06,7.72,.52,1.4-.14,2.92,.48,4.31,0,1.89,0,3.79,0,5.68-.55,1.15-.07,2.41-.41,3.58-1.2,10.45-3.89,20.35-10.33,28.94-8.34,11.12-19.71,17.78-32.57,22.24-10.96,3.8-22.31,5.58-33.85,6.37-1.17,.4-2.45-.12-3.6,.44-8.04,0-16.09,0-24.13,0-1.39-.62-2.91,.04-4.31-.48-11.1-.26-22.04-1.84-32.63-5.06-6.55-1.99-13.29-3.49-19.53-6.5-1.51-.73-1.44-1.18-1.13-2.61,2.2-10.19,4.21-20.42,6.36-30.62,.38-1.79,1.09-2.77,3.54-1.9,11.84,4.2,23.45,9.2,36.11,10.72,5.74,.69,11.45,1.45,17.25,1.11,4.95,.43,9.89,.45,14.84,0,11.54,0,22.74-1.43,32.64-8.02,8.15-5.43,10.23-13.55,9.4-22.64-.58-6.28-3.28-11.94-7.69-16.34-3.33-3.32-7.42-5.94-11.59-8.28-13.08-7.34-26.98-12.85-40.82-18.54-11.92-4.9-23.94-9.59-34.38-17.54-11.07-8.42-18.86-19.03-21.23-32.67-2.52-14.5-1.85-29,4.99-42.53,7.46-14.74,19.56-24.23,34.75-30.11,11.07-4.29,22.64-6.14,34.41-6.96,1.63-.46,3.35,.2,4.96-.44,2.58,0,5.17,0,7.75,0,1.61,.63,3.32,.01,4.95,.41Z"/><path class="cls-46" d="M964.3,907.41c10.59,.5,20.62-1.98,30.4-5.76,2.82-1.09,5.77-1.9,8.46-3.24,2.06-1.03,2.47-.26,2.88,1.5,2.35,9.84,4.77,19.67,7.16,29.5,.47,1.93-.46,2.9-2.19,3.56-9.71,3.69-19.55,6.96-29.75,9.02-11.01,2.23-22.15,2.3-33.32,2.01-10.67-.28-21.15-1.75-31.18-5.33-16.67-5.95-28.15-17.37-34.8-33.81-3.66-9.06-5.39-18.48-6.63-28.09-.45-3.48-.36-6.96-.86-10.41-.43-1.18,.09-2.47-.45-3.63,0-2.5,0-4.99,0-7.49,0-68.22,.03-136.44-.1-204.66,0-3.54,1.22-4.24,4.32-4.71,11.29-1.73,22.53-3.78,33.78-5.75,4.07-.71,4.17-.68,4.17,3.49,0,20.92,.09,41.84-.09,62.76-.03,3.41,1,4.05,4.19,4.03,26.85-.13,53.71-.03,80.57-.14,3.05-.01,4.15,.67,4.07,3.94-.23,8.98-.25,17.97,0,26.94,.1,3.31-1.07,3.83-4.02,3.82-26.97-.1-53.94,0-80.91-.14-3.16-.02-3.89,.85-3.88,3.92,.14,36.61,.13,73.22,.16,109.83,0,.57,.08,1.13,.12,1.7,.48,1.16-.1,2.46,.48,3.61,.31,11.32,2.5,22.09,9.35,31.46,4.79,6.55,11.66,9.69,19.33,11.27,3.3,.68,6.67,1.2,10.08,.8,2.88,.43,5.76,.47,8.64-.01Z"/><path class="cls-8" d="M1341.01,944.17c-12.28-.02-24.57-.11-36.85,0-2.49,.02-3.29-.55-3.28-3.18,.07-71.94,.07-143.88,.01-215.82,0-2.2,.74-3.23,2.77-3.87,16.92-5.36,34.01-9.91,51.71-11.91,6.88-.78,13.77-1.16,20.67-1.54,4.29-.2,8.59-.25,12.88,.03,12.53,.84,24.84,3.09,37.1,5.69,2.13,.45,3.31,1,2.67,3.89-2.29,10.33-4.26,20.73-6.09,31.15-.44,2.5-1.54,2.22-3.14,1.69-9.46-3.11-19.14-4.63-29.09-5.61-16.66-1.64-32.64,.93-48.54,5.2-.71,1.28-.34,2.67-.34,4.01-.02,62.12-.02,124.23-.04,186.35,0,1.31,.48,2.72-.45,3.94Z"/><path class="cls-45" d="M199.31,861.6c1.89-16.32,5.06-32.43,8.81-48.38,3.01-12.79,6.25-25.56,10.45-38.05,3.01-8.95,5.56-18.06,8.63-26.98,5.92-17.21,12.54-34.16,19.7-50.9,8.09-18.94,17.12-37.41,26.63-55.67,4.38-8.4,8.97-16.69,13.68-24.9,.82-1.43,1.92-2.56,3.12-3.55,4.73-3.89,9.57-2.06,11.24,3.82,1.6,5.62-.29,10.69-1.88,15.79-11.68,37.47-22.05,75.27-29.25,113.88-4.95,26.5-8.14,53.21-8.68,80.19,.55,4.11-1.67,5.65-5.32,7.02-18.43,6.94-35.95,15.76-52.53,26.41-1.35,.87-2.68,2.27-4.61,1.34Z"/><path class="cls-8" d="M802.75,944.17c-11.26-.02-22.53-.11-33.79,0-2.43,.02-3.01-.72-3-3.07,.06-75.82,.06-151.65,0-227.47,0-2.54,.89-2.92,3.13-2.9,11.26,.1,22.53,.05,33.79,.05,.67,1.17,.34,2.45,.34,3.67,.02,75.37,.02,150.74,0,226.11,0,1.2,.47,2.5-.45,3.61Z"/><path class="cls-8" d="M1502.9,944.17c-11.26-.02-22.53-.11-33.79,0-2.43,.02-3.01-.72-3-3.07,.06-75.82,.06-151.65,0-227.47,0-2.54,.89-2.92,3.13-2.9,11.26,.1,22.53,.05,33.79,.05,.67,1.17,.34,2.45,.34,3.67,.02,75.37,.02,150.74,0,226.11,0,1.2,.47,2.5-.45,3.61Z"/><path class="cls-14" d="M581.56,619.38c9.28,6.05,17.44,13.37,24.59,21.81,.85,1.04,.47,2.14,.15,3.24-8.2,28.22-21.52,53.72-40.51,76.21-1.83,2.17-3.6,4.41-5.72,6.31-.88,.79-1.59,2.04-3.13,1.59-3.1-10.23-7.42-19.96-12.2-29.5-.29-1.32,.66-2.1,1.34-2.97,16.83-21.56,28-45.72,33.57-72.49,.31-1.51,.38-3.21,1.9-4.21Z"/><path class="cls-23" d="M556.95,728.55c6.83-5.57,11.85-12.73,17.01-19.71,12.82-17.36,22.35-36.44,29.16-56.89,1.18-3.53,2.03-7.16,3.03-10.75,8.74,9.9,14.61,21.29,17.78,34.09-3.29,5.59-5.58,11.67-8.46,17.47-12.18,24.53-28.72,45.72-48.73,64.3-.88,.81-1.8,2.88-3.5,.83-1.14-5.77-2.23-11.54-3.45-17.29-.86-4.04-1.9-8.04-2.85-12.05Z"/><path class="cls-34" d="M375.23,1003.74c18.99,8.84,38.38,16.69,58.28,23.29,.19,.06,.33,.29,.49,.44,1.26,2.99,4,4.77,6.04,7.09,8.3,9.48,15.19,19.8,19.82,31.54,.72,1.83,2.08,3.15,2.82,4.88-7.12,.03-14.09-1.32-21.13-2.11-3.9-7.58-8.44-14.72-14.02-21.23-7.61-8.87-16.9-15.49-27.25-20.61-12.95-6.42-26.78-9.33-41.23-8.9-18.22,.54-34.78,6.13-49.6,16.77-1.39,1-2.46,2.35-3.84,3.36-5.2-2.11-10.64-3.63-15.61-6.3,2.72-3.69,6.45-6.26,10.07-8.9,14.97-10.95,31.72-17.41,50.15-19.57,8.36-.98,16.69-.58,25.02,.24Z"/><path class="cls-20" d="M427.2,612.99c-15.89-6.61-32.35-11.66-48.52-17.49-1.71-4.03-1.22-8.29-.59-12.32,1.48-9.64,6.99-16.73,15.3-21.67,1.52-.91,3.19-1.78,5.09-.87,10.13,1.04,20.19,2.55,30.11,4.88,5.1,2.68,7.37,7.52,9.24,12.52,4.48,11.96,.97,23.82-7.57,32.85-.85,.9-1.88,1.63-3.06,2.11Z"/><path class="cls-49" d="M563.25,757.89c1.27,.83,1.83-.3,2.52-.95,13.29-12.59,25.51-26.09,35.63-41.41,7.97-12.06,14.52-24.87,20.32-38.08,.49-1.12,.79-2.13,2.21-2.16,2.79,6.71,3.56,13.89,4.74,20.96,.47,2.78,.99,5.57,.7,8.43,.51,.58,.32,1.25,.26,1.9-3.98,5.82-7.1,12.16-10.98,18.03-8.1,12.25-17.19,23.68-27.12,34.53-7.24,7.91-15.13,15.03-23.33,21.87-.83,.69-1.57,1.73-2.92,1.41-.09-.92-.18-1.84-.27-2.76-.43-1.15,.14-2.42-.46-3.54,.38-6.13-1.48-12.1-1.32-18.22Z"/><path class="cls-31" d="M199.31,861.6c5.67-2.15,10.33-6.04,15.53-9,14.11-8.05,28.73-15.02,43.96-20.57,3.39-1.24,1.54-3.78,2.97-5.2-.13,10.24,.35,20.46,.8,30.69-3.34,2.21-7.23,3.23-10.83,4.87-17.03,7.75-33.15,17-48.23,28.08-1.95,1.44-3.67,3.86-6.73,3.09-.12-.87-.22-1.73,.11-2.58,.08-.93,.17-1.86,.25-2.79,.49-1.81,.1-3.66,.23-5.49,.07-1.11-.18-2.24,.2-3.33,.05-1.13,.09-2.27,.14-3.4,.79-1.29-.03-2.79,.54-4.11,.36-3.43,.71-6.85,1.07-10.28Z"/><path class="cls-9" d="M625.26,780.4c-.68,8.22-2.65,16.22-4.37,24.25-1.2,5.6-2.62,11.16-3.94,16.73-5.28,4.97-11.05,9.34-16.75,13.79-11.46,8.95-23.56,16.97-36.23,24.1-1.21,.68-2.38,1.92-4.02,.96,1.3-9.53,3.02-19,3.3-28.65,21.57-13.32,40.23-30.11,57.73-48.3,1.18-1.23,2.11-3.06,4.3-2.88Z"/><path class="cls-12" d="M625.26,780.4c-5.51,5.41-11.05,10.79-16.54,16.22-12.83,12.71-26.92,23.86-42.02,33.75-1.06,.69-2.13,1.31-3.46,1.21,.25-.7,.49-1.4,.74-2.1,.35-1.53,.21-3.08,.08-4.62,.05-3.16,.93-6.28,.5-9.47,.66-1.36-.05-2.87,.49-4.24,.08-9.33,.16-18.66,.25-27.98,1.7,.37,1.39,1.82,1.49,2.94,.16,1.89,.1,3.79,.01,5.68-.16,3.51-.11,7.03-.09,10.55,0,.76-.3,1.74,.52,2.18,.84,.45,1.47-.37,2.07-.82,6.03-4.46,11.75-9.3,17.39-14.24,15.71-13.76,29.3-29.42,41.73-46.14,.39-.53,.67-1.23,1.53-1.12-.43,9.71-1.54,19.36-2.98,28.96-.46,3.08-.39,6.29-1.71,9.22Z"/><path class="cls-50" d="M581.56,619.38c-2.76,12.15-5.88,24.16-10.63,35.74-6.55,15.97-15.35,30.54-26.18,43.92-3.89-5.65-7.78-11.29-11.67-16.94-.5-1.56,.54-2.57,1.32-3.66,9.83-13.9,17.35-28.96,22.34-45.23,2.19-7.15,3.85-14.45,4.89-21.88,.17-1.22,.11-2.5,.83-3.61,6.72,3.32,13.1,7.18,19.11,11.64Z"/><path class="cls-45" d="M805.81,637.71c-1.78,9.13-6.75,15.66-15.87,18.22-12.95,3.63-27.91-2.31-29.58-18.22-.24-2.48-.24-4.95,0-7.43,1.49-15.03,14.93-20.64,26.58-18.74,10.74,1.75,16.74,8.31,18.87,18.74,.24,2.48,.24,4.95,0,7.43Z"/><path class="cls-45" d="M1463.28,630.95c1.51-11.98,7.61-16.8,16.05-18.98,11.01-2.83,20.77,1.08,26.45,9.74,1.46,2.22,1.94,4.77,2.85,7.19,.34,3.4,.34,6.8,0,10.19-2.05,8.13-6.79,13.88-14.91,16.47-14.59,4.66-29.09-2.96-30.43-18.53-.3-2.03-.3-4.06,0-6.09Z"/><path class="cls-13" d="M229.16,995.15c-5.12-4.22-9.24-9.31-12.91-14.78,12.66-13.9,26.66-26.22,42.64-36.24,6.93-4.35,14.12-8.22,21.48-11.77,1.11-.54,2.16-1.28,3.48-1.28,3.61,5.1,7.22,10.2,10.83,15.3,.61,2.53-1.69,2.66-2.98,3.21-10.16,4.35-19.63,9.92-28.63,16.26-11.16,7.85-21.34,16.83-30.28,27.17-.97,1.13-1.9,2.29-3.63,2.14Z"/><path class="cls-26" d="M490.78,645.66c-7.07-4.02-13.68-8.81-21.06-12.31-.36-.17-.53-.71-.79-1.08,2.3-4.14,4.82-8.15,6.89-12.44,5.75-11.94,7.84-24.48,6.64-37.62-.14-1.56-.49-3.18,.76-4.52,8.11,1.67,15.98,4.13,23.71,7.05,.75,.29,1.5,.38,2.24,.58,1.15,1.21,.97,2.75,.9,4.19-.85,18.66-5.28,36.28-15.3,52.25-1,1.59-1.76,3.52-3.99,3.89Z"/><path class="cls-30" d="M526.93,591.55c7.23,2.55,14.21,5.68,21.17,8.87,.89,.97,.59,2.1,.47,3.23-2.43,21.93-9.7,42.16-21.44,60.8-1.39,2.21-2.48,4.99-5.67,5.43-5.01-4.32-10.02-8.64-15.03-12.95-1.03-1.56-.1-2.81,.69-4.05,10.42-16.46,16.65-34.37,18.78-53.74,.28-2.53-.66-5.25,1.05-7.58Z"/><path class="cls-39" d="M203.37,954.39c-2.14-6.7-3.24-13.65-4.94-20.45-.1-.42,.04-.89,.06-1.34,16.87-14.97,35.15-27.92,55.16-38.39,3.52-1.84,7.25-3.23,10.82-4.98,.89-.44,1.88-.86,2.93-.31l4.84,16.92c.35,1.75-1.09,2.02-2.15,2.52-19.64,9.23-37.61,21-53.87,35.36-2.89,2.55-5.45,5.46-8.26,8.1-1.29,1.21-2.5,2.7-4.57,2.57Z"/><path class="cls-28" d="M1459.26,1038.59c-.27,10.97-.29,21.94,.01,32.92-2.45,1.21-4.94,.85-7.44,.19,0-10.67,.2-21.34-.12-32-.14-4.68-.14-9.63-3.59-13.59-1.98-2.27-4.46-3.35-7.35-3.57-4.52-.35-9,.1-13.48,.75-2.03,.3-1.5,1.67-1.5,2.78,0,15.21,.02,30.41,.04,45.62-2.49,.75-4.97,.75-7.46,0,.02-16.26,.13-32.53-.02-48.79-.03-3.16,.69-4.58,3.99-5.22,7.62-1.48,15.18-2.64,22.93-1.16,2.51,.48,4.99,1.24,6.68,3.02,1.89,2.01,3.28,1.22,5.15,.26,9.2-4.7,18.57-6.14,27.92-.51,5.76,3.47,6.07,9.65,7.04,15.42,.13,.78,.16,1.58,.23,2.37,.37,10.98,.04,21.97,.18,32.95,.02,1.61-.53,2.32-2.16,2.14-1.67-.18-3.39,.38-5.02-.36-.06-10.7-.12-21.4-.17-32.1-.39-1.17,.11-2.46-.43-3.61-.37-12.21-7.22-14.85-18.2-13.28-.43,.06-.84,.36-1.27,.41-2.57,.29-4.81,1.55-6.76,2.98-2.74,2.01,.16,4.48,.09,6.76-.02,.67,.15,1.35,.23,2.02,.49,1.15-.12,2.45,.49,3.58Z"/><path class="cls-21" d="M548.31,919.01c2.59-10.19,4.79-20.47,6.81-30.79,4.05-3.42,9.07-5.17,13.62-7.69,11.67-6.46,22.86-13.61,33.75-21.27,1.25-.88,2.41-2.19,4.24-1.72-4.26,14.28-9.15,28.35-14.41,42.29-4.64,3.26-9.64,5.9-14.72,8.4-8.12,3.99-16.04,8.4-24.46,11.74-1.59,.63-3.88,2.54-4.84-.95Z"/><path class="cls-47" d="M307,959.18c5.69,4.78,11.38,9.57,17.07,14.35-.22,2.32-2.32,2.19-3.76,2.68-13.08,4.41-25.45,10.28-36.79,18.14-8.66,6.01-16.91,12.57-23.56,20.9-.42,.53-.84,1.08-1.49,1.36-5.45-3.09-10.85-6.25-15.72-10.21-.94-1.65,.43-2.51,1.25-3.5,9.85-11.84,21.79-21.22,34.73-29.41,7.81-4.94,16.06-9.02,24.62-12.46,1.28-.51,2.37-1.36,3.64-1.84Z"/><path class="cls-17" d="M606.74,857.54c-8.14,5.35-16.19,10.83-24.43,16-8.73,5.48-17.66,10.65-27.19,14.68,1.81-9.3,3.6-18.6,4.83-27.99,8.4-3.77,15.96-8.97,23.59-14.02,10.28-6.8,19.95-14.43,29.39-22.35,1.2-1,2.68-1.67,4.03-2.49-2.95,12.18-6.3,24.25-10.21,36.16Z"/><path class="cls-28" d="M1053.63,1071.5c-3.98-9.67-8.15-19.27-11.02-29.35-2.15-7.57-4.18-15.17-6.37-22.73-.56-1.93-.23-2.62,1.89-2.68,5.42-.16,5.28-.19,6.57,5.61,2.97,13.29,7.15,26.22,12.13,38.89,.15,.39,.41,.73,.81,1.43,2.51-3.5,2.92-7.45,4.19-11.03,3.71-10.45,6.76-21.09,9.02-31.96,.42-2.05,1.3-3.19,3.84-3.01,2.3,.17,3.21,.65,3.74,3.11,2.9,13.52,6.89,26.74,11.63,39.73,.35,.96,.2,2.58,1.7,2.63,1.39,.05,1.11-1.64,1.36-2.32,2.71-7.52,5.33-15.08,7.63-22.73,1.85-6.16,3.09-12.5,4.91-18.67,.99-3.34,4.05-1.36,6.1-1.51,2.23-.16,.75,1.57,.57,2.41-3.51,15.94-8.59,31.38-14.8,46.46-.81,1.96-1.53,3.96-2.3,5.95-2.55,.48-5.12,1.28-7.49-.57-5.13-12.44-9.22-25.25-13.36-39.16-3.83,14.19-8.47,27.01-13.29,39.77-2.5,.49-5.01,.98-7.45-.27Z"/><path class="cls-40" d="M483.21,577.69c-.31,4.07,.89,8.04,.73,12.13-.56,14.3-4.55,27.48-12.23,39.55-.74,1.17-1.59,2.19-2.79,2.89-7.78-3.15-15.09-7.27-22.57-11.03-.06-1.64,1.16-2.65,1.99-3.81,8.77-12.34,11.32-25.88,8.08-40.6-.42-1.93-1.41-3.92,.14-5.83,8.97,1.9,17.93,3.79,26.64,6.7Z"/><path class="cls-10" d="M267.38,888.91c-19.66,8.23-37.58,19.35-54.19,32.64-4.14,3.31-8.18,6.76-12.23,10.19-.76,.64-1.53,.92-2.48,.86-.08-.92-.16-1.83-.24-2.75-.54-1.09,.21-2.38-.54-3.43-.07-1.14-.13-2.27-.2-3.41-.46-1.33,.28-2.8-.48-4.09-.05-1.82-.11-3.63-.16-5.45-.25-.66-.22-1.33-.05-2,11.79-10.04,24.46-18.84,37.87-26.59,9.46-5.47,19.4-9.95,29.32-14.49,1.13,6.18,2.26,12.35,3.39,18.53Z"/><path class="cls-1" d="M307,959.18c-1.62,3.27-5.22,3.32-7.95,4.53-12.92,5.7-24.84,12.96-35.81,21.81-6.87,5.55-13.43,11.41-19.01,18.3-.64,.79-1.49,1.42-1.48,2.57-4.96-3.23-9.42-7.05-13.59-11.24,2.04-.98,2.99-3.02,4.46-4.56,13.18-13.86,27.67-26.07,44.64-35.16,4.4-2.36,8.77-4.73,13.38-6.67,1.15-.49,2.76-.67,3.05-2.38,4.11,4.27,8.21,8.53,12.32,12.8Z"/><path class="cls-19" d="M203.37,954.39c5.68-3.65,9.77-9.06,14.81-13.44,10.12-8.79,21.06-16.33,32.49-23.22,6.5-3.92,13.14-7.59,20.17-10.48,.67-.28,1.1-.78,1.39-1.42,2.05,5.04,4.11,10.09,6.16,15.13-.68,1.68-2.35,2.08-3.74,2.74-15.7,7.46-30.17,16.84-43.56,27.9-6.15,5.08-11.78,10.69-17.41,16.32-.99,.99-1.78,2.47-3.59,2.18-3.09-4.87-4.76-10.35-6.72-15.71Z"/><path class="cls-28" d="M1510.79,1054.76c0-11.03,.07-22.06-.06-33.08-.03-2.4,.74-3.25,3.08-3.83,7.8-1.93,15.63-2.85,23.56-1.28,9.18,1.82,15.33,7.32,18.37,16.15,3.28,9.52,2.89,19.01-1.57,28.01-3.99,8.05-10.88,12.09-19.89,12.48-4.91,.21-9.67-.28-14.04-2.74-1.71-.96-2.32-.59-2.29,1.43,.09,5.68-.16,11.38,.1,17.05,.15,3.29-1.85,2.65-3.7,2.68-1.93,.03-3.7,.42-3.65-2.76,.19-11.37,.08-22.74,.08-34.11Z"/><path class="cls-33" d="M521.45,669.87c4.21-3.33,6.48-8.1,8.94-12.61,8.25-15.09,14.26-30.99,16.39-48.18,.36-2.9,.87-5.78,1.32-8.67,4.88,2.26,9.78,4.47,14.35,7.32,.76,4.45-.69,8.7-1.55,12.92-2.62,12.82-6.94,25.13-12.84,36.79-4.03,7.98-8.43,15.8-14.03,22.86-.42,.52-.64,1.2-.95,1.81-3.88-4.08-7.75-8.16-11.63-12.24Z"/><path class="cls-38" d="M526.93,591.55c-.16,22.22-7.15,42.36-18.63,61.14-.8,1.32-2.13,2.44-1.88,4.23-5.21-3.75-10.42-7.51-15.64-11.26,6.87-8.56,10.96-18.51,14.09-28.87,3.1-10.24,4.16-20.8,4.29-31.47,6.2,1.28,11.68,4.6,17.76,6.22Z"/><path class="cls-35" d="M425.83,1066.82c-5.69-.87-11.38-1.74-17.06-2.61-16.75-19.83-45.41-26.9-69.83-17.21-1.53,.61-3,1-4.56,.23-5.2-.73-9.99-2.93-15.02-4.28,.09-1.27,1.22-1.55,2.05-2.06,28.33-17.26,65.27-14.07,89.84,7.06,5.24,4.51,9.52,9.73,13.61,15.19,.78,1.05,1.84,2.13,.98,3.67Z"/><path class="cls-7" d="M258.47,1016.61c1.54-4.09,4.83-6.82,7.92-9.56,7.44-6.61,15.02-13.06,23.79-17.97,9.43-5.27,19.05-10.08,29.33-13.47,1.58-.52,3.38-.64,4.56-2.07,4.99,3.47,9.98,6.93,14.98,10.4-.18,2.39-2.26,2.3-3.76,2.67-8.63,2.1-17.08,4.69-25.16,8.44-13.85,6.42-26.15,15.02-36.78,25.99-.77,.8-1.3,1.9-2.54,2.16-4.37-1.72-8.35-4.15-12.34-6.58Z"/><path class="cls-28" d="M1263.89,1045.88c-11.83,0-23.66,0-35.49,.04-1.06,0-2.46-.66-2.73,1.48-.91,7.38,4.98,16.5,12.2,18.29,6.28,1.55,12.52,1.41,18.64-1,.75-.29,2.19-1.84,2.58,.2,.35,1.82,2.51,4.25-.32,5.59-8.66,4.1-26.3,4.9-34.68-5.39-3.2-3.93-5.12-8.61-5.61-13.46-.97-9.6-.64-19.2,5.53-27.4,3.81-5.06,9.04-7.91,15.41-8.55,2.02-.2,4.04-.25,6.05,.03,11.64,2.29,17,8.63,18.61,22.04,.2,2.72,.57,5.45-.21,8.14Z"/><path class="cls-37" d="M305.61,1038.28c.21-2.4,2.23-3.37,3.84-4.47,13.02-8.89,27.17-14.46,43.06-16.04,16.95-1.68,32.92,1.16,48.1,8.43,17.26,8.26,30.35,21.06,39.45,37.9,.8,1.48,1.74,2.96,1.49,4.79-2.74-.49-5.63-.06-8.25-1.33-.69-.23-1.12-.73-1.45-1.35-7.57-14.07-18.93-24.44-32.81-31.85-10.52-5.61-21.94-8.47-34.05-8.82-14.8-.43-28.71,2.37-41.86,9.16-3.36,1.74-6.32,4.02-9.32,6.26-2.97-.18-5.36-2.11-8.2-2.68Z"/><path class="cls-27" d="M629.95,742.21c-3.23,5.3-7.23,10.05-11.1,14.86-7.53,9.35-15.65,18.2-24.39,26.46-8.22,7.76-16.8,15.12-25.91,21.83-.63,.47-1.19,1.18-2.08,.69-.87-.49-.59-1.4-.59-2.15,0-3.75,.03-7.49,.05-11.24,3.39-4.19,8.02-7,11.95-10.59,12.43-11.37,24.27-23.28,34.58-36.65,5.07-6.58,9.58-13.55,14.22-20.43,1.69-2.51,2.97-5.1,2.62-8.25-.1-.89,.02-1.83,.65-2.58,.35-.19,.59-.1,.74,.27,0,7.15,0,14.3,.01,21.44-.65,1.36,.04,2.87-.48,4.24-.08,.71-.17,1.42-.25,2.13Z"/><path class="cls-5" d="M548.31,919.01c1.32,2.27,3.06,.88,4.42,.27,5.07-2.26,10.09-4.66,15.07-7.13,7.31-3.64,14.75-7.03,21.65-11.44,.86-.55,1.81-.97,2.88-.88-4.25,11.81-9.34,23.28-14.29,34.81-10.83,4.81-21.49,10.02-32.72,13.88-1.45,.5-3.12,1.71-4.56-.18,2.51-9.77,5.02-19.54,7.54-29.32Z"/><path class="cls-44" d="M264,870.38c-1.22,3-4.41,2.93-6.72,3.97-14.65,6.55-28.51,14.43-41.63,23.63-5.27,3.7-10.46,7.53-15.37,11.72-.89,.76-1.86,1.72-3.23,1.75-.61-5.92-.61-11.83,0-17.75,5.99-4.07,11.92-8.24,17.99-12.2,13.82-9.01,28.34-16.7,43.6-22.98,1.24-.51,2.62-.67,3.93-.99,.84,4.25,1.17,8.55,1.43,12.86Z"/><path class="cls-25" d="M456.57,570.99c.66,7.05,2.7,13.95,2.09,21.16-.94,11.07-5,20.74-12.3,29.08-6.39-2.75-12.78-5.49-19.16-8.24,.78-2.38,3.13-3.4,4.63-5.18,10.42-12.44,8.92-30.53-2.4-41.23-.32-.31-.56-.71-.84-1.07,6.84,.48,13.41,2.48,20.13,3.65,2.64,.46,5.24,1.21,7.85,1.83Z"/><path class="cls-28" d="M1352.57,1041.85c.21-6.31,2.09-12.09,5.77-17.22,3.83-5.33,9.29-7.92,15.63-8.9,2.25-.34,4.5-.28,6.76-.04,13.88,2.39,20.48,12.23,21.75,25.72,.75,7.95-.84,15.51-5.61,22.18-7.31,10.22-22.85,12.97-33.14,5.82-7.73-5.38-10.58-13.23-11.17-22.21-.21-1.78-.21-3.57,0-5.35Z"/><path class="cls-28" d="M921.71,1015.7c12.21,2.32,19.49,10.44,21.29,23.02,1.39,9.75-.28,18.57-6.35,26.43-5.03,6.5-16.98,9.83-24.96,7.42-12.35-3.73-16.84-12.97-18.13-24.68-.17-2.48-.31-4.95,.07-7.43,.4-5.95,2.26-11.45,5.87-16.16,3.85-5.03,9.2-7.72,15.47-8.57,2.25-.34,4.5-.28,6.76-.04Z"/><path class="cls-28" d="M1145.74,1015.67c11.08,2.11,16.33,8.4,16.36,19.71,.03,10.79,0,21.59,0,32.38,0,1.45,.29,2.98-1.84,3.41-8.89,1.79-17.79,3.02-26.83,1.1-5.93-1.26-11.41-6.55-11.72-14.12-.24-1.57-.28-3.13,.02-4.7,.83-8.26,6.2-12.06,13-13.52,2.08-.45,4.21-.67,6.31-1,2.25-.28,4.51-.3,6.76,.02,.56,.07,1.13,.13,1.69,.22,5.77,.93,5.81,.93,5.33-4.9-.84-10.22-8.41-13.16-16.81-12.05-2.74,.36-5.56,.48-8.17,1.69-.93,.43-1.74,.19-1.63-1.23,.08-.99-.15-1.96-.63-2.94-.6-1.24-.07-2.15,1.39-2.42,2.89-.52,5.77-1.07,8.66-1.61,2.7-.28,5.4-.23,8.1-.03Z"/><path class="cls-28" d="M1595.91,1038.94c.67,.08,1.35,.14,2.02,.26q5.43,.94,4.98-4.54c-.94-11.08-8.24-13.51-17.39-12.42-1.58,.19-3.3,.01-4.9,.83-2.63,1.33-4.56,1.61-4.75-2.63-.1-2.28,.26-3.02,2.23-3.37,2.55-.44,5.1-.91,7.65-1.37,2.7-.28,5.4-.23,8.1-.03,10.96,2.11,16.27,8.34,16.35,19.42,.08,10.91,.02,21.82,.02,32.74,0,1.48,.21,2.93-1.91,3.35-8.9,1.75-17.79,2.97-26.85,1.08-5.76-1.2-11.66-7.33-11.6-13.43-.32-1.79-.24-3.58-.05-5.37,.76-9.07,7.21-12.93,17-14.29,.78-.11,1.57-.17,2.36-.25,2.25-.28,4.51-.3,6.76,.02Z"/><path class="cls-8" d="M798.85,1034.78c.08-10.51-7.94-13.72-16.65-12.56-2.59,.34-5.45,0-7.83,1.67-.41,.29-1.35,.27-1.53-.29-.54-1.66-1.14-3.38-1.2-5.1-.04-1.21,1.52-1.17,2.45-1.38,2.54-.56,5.11-.97,7.66-1.43,2.7-.28,5.4-.23,8.1-.03,11.41,1.69,16.1,8.3,16.39,19.64,.27,10.79,0,21.6,.1,32.4,.02,2.16-.5,3.26-2.82,3.69-8.69,1.62-17.38,2.89-26.16,.75-9.34-2.28-11.84-9.94-11.44-17.24,.59-10.69,6.47-14.12,16.86-15.72,.78-.12,1.58-.16,2.37-.24,2.26-.32,4.51-.32,6.77,0,2.05,.28,4.09,.56,6.14,.84,2.31-1.34,.72-3.3,.79-5Z"/><path class="cls-28" d="M1707.47,1064.69c2.69-6.1,4.48-11.93,6.02-17.79,2.49-9.46,4.56-19.04,7.03-28.51,.85-3.26,3.79-1.17,5.73-1.53,1.77-.33,1.66,1.16,1.39,2.29-4.71,19.82-9.95,39.48-18.36,58.13-2.4,5.33-5.45,10.23-11.12,12.74-4.84,2.14-9.91,2.83-15.05,1.48-.95-.25-3.79,.22-2.45-2.55,.79-1.63-.47-4.75,3.81-3.66,9.99,2.52,15.88-2.83,19.2-11.35,.52-1.34-.42-2.1-.9-3.05-6.84-13.63-12.86-27.59-17.31-42.2-1.03-3.39-1.88-6.84-2.82-10.26-.15-.55-.97-1.06,.16-1.58,3.13-1.45,7.19,.42,8.03,3.77,3.62,14.45,8.97,28.28,15.3,41.74,.28,.6,.66,1.16,1.34,2.35Z"/><path class="cls-18" d="M210.08,970.09c3.02-2.92,6.05-5.82,9.05-8.76,12.53-12.26,26.48-22.62,41.7-31.32,5.73-3.28,11.72-6,17.56-9.05,1.82,3.37,3.64,6.75,5.46,10.12-.64,1.06-1.79,1.36-2.8,1.83-15.3,7.08-29.28,16.28-42.4,26.8-6.91,5.55-12.88,12.12-19.18,18.33-.94,.93-1.66,2.24-3.22,2.33-2.38-3.23-4.93-6.36-6.16-10.28Z"/><path class="cls-22" d="M565.06,962.62c-7.04,15.82-15.82,30.74-24,45.97-1.67,3.11-4.07,5.71-7.33,7.34-1.33,.43-2.67,.36-4.02,.04-3.58-1.23-4.38-4.3-4.74-7.49-.42-3.74,.14-7.43,1.33-11,2.8-8.4,4.88-17.03,8.15-25.28,9.09-2.83,17.95-6.28,26.78-9.84,1.29-.52,2.62-.82,3.83,.26Z"/><path class="cls-28" d="M1664.28,1071.69c.02-10.56,.08-21.11,.03-31.67-.02-3.7-.72-7.36-2.24-10.71-2.11-4.66-6.3-6.49-11.13-6.8-4.39-.29-8.78,0-13.15,.76-1.53,.27-1.79,1-1.78,2.28,.07,15.32,.13,30.64,.19,45.96-2.44,1.25-4.95,.7-7.46,.3,0-16.59,.07-33.19-.07-49.78-.02-2.72,.91-3.6,3.45-4.17,7.7-1.73,15.4-2.76,23.26-1.49,10.6,1.71,14.64,9,15.66,18.39,1.18,10.86,.26,21.78,.51,32.68,.03,1.36,.12,2.72,.18,4.07-2.45,1.21-4.94,.85-7.44,.19Z"/><path class="cls-24" d="M270.81,1023.19c2.96-4.97,7.56-8.38,11.88-11.96,11.85-9.83,25.14-17.18,39.79-21.98,4.17-1.37,8.5-2.26,12.73-3.46,1.36-.39,2.98-.39,3.83-1.86,5.72,2.77,10.57,6.99,16.37,9.61-.07,1.98-1.69,1.83-2.96,2.09-3.78,.76-7.64,1.01-11.44,1.71-21.48,3.95-40.03,13.61-55.98,28.41-1.53,1.42-2.98,2.88-5.31,1.7-3.21-.92-6.04-2.64-8.92-4.25Z"/><path class="cls-28" d="M959.34,1071.69c.06-21.25-.1-42.5,.27-63.75,.2-11.72,5.57-17.68,17.82-18.58,3.74-.28,7.41,.25,11.1,1.13,3.27,.78,1.49,2.77,1.27,4.17-.19,1.23-.1,3.24-2.84,2.23-3.5-1.28-7.3-1.47-11.03-.8-5.25,.94-8.58,4.79-9.1,10.32q-.98,10.36,9.44,10.36c2.84,0,5.7,.18,8.53-.05,2.96-.24,4.31,.71,3.82,3.78-.1,.66,.02,1.36,.04,2.04-2.61,1.06-5.32,.28-7.98,.45-4.6,.28-9.22-.4-13.81,.37-.62,4.84-.24,9.7-.25,14.55-.02,11.19,.09,22.39,.15,33.58-2.45,1.2-4.94,.85-7.44,.19Z"/><path class="cls-41" d="M630.09,714.16c.88,5.33-1.62,9.43-4.33,13.77-12.3,19.67-27.74,36.63-44.58,52.38-4.76,4.45-9.61,8.92-15.25,12.34-.45-3.15,.64-6.39-.62-9.48,0-.25,0-.5-.01-.75,7.46-5.89,14.66-12.13,21.21-18.99,15.43-16.15,29.19-33.6,39.84-53.34,.72-1.34,1.22-2.98,3.02-3.41,.67,.54,.11,1.42,.58,2.01,.09,.71,.19,1.43,.28,2.14,.21,1.12,.42,2.24-.14,3.32Z"/><path class="cls-2" d="M279.73,1027.44c1.77,.31,2.94-.61,4.16-1.77,14.38-13.76,31.26-23.11,50.57-27.87,6-1.48,12.21-2.12,18.34-3.06,1.04-.16,2.04-.16,2.63-1.2,6.6,3.4,13.21,6.81,19.81,10.21-2.85,1.08-5.98,.99-8.68,.35-5.4-1.29-10.66-.12-15.85,.36-13.39,1.23-26.15,5.17-37.97,11.67-6.83,3.76-13.4,7.99-19.11,13.4-1.05,.99-2.4,1.65-3.62,2.47-3.56-1.21-6.96-2.76-10.27-4.53Z"/><path class="cls-40" d="M357.51,589.35c-8.19-1.88-16.38-3.76-24.57-5.63-.79-.81-.89-1.81-.77-2.85,1.02-8.61,2.88-16.99,6.95-24.75,.33-.62,.82-1.08,1.33-1.53,7.61-.14,15.15,.98,22.69,1.68,2.42,.22,5.02-.38,7.32,.95-7.1,7.67-10.3,16.97-11.35,27.16-.18,1.78,.17,3.71-1.6,4.96Z"/><path class="cls-28" d="M869.8,1015.72c2.42,.52,4.85,1.02,7.26,1.58,1.99,.46,2.64,1.33,1.89,3.6-1.36,4.1-1.08,4.01-5.25,2.43-5.4-2.04-10.96-2.03-16.3,.16-4.4,1.81-5.34,8.11-2.03,11.77,2.85,3.15,6.87,4.18,10.52,5.85,2.25,1.03,4.61,1.81,6.83,2.9,4.87,2.4,8.54,5.87,9.6,11.48,.23,1.8,.31,3.6-.05,5.39-2.11,8.48-8.5,11.51-16.28,12.15-6.16,.51-12.36,.54-18.39-1.73-2.16-.81-2.85-1.31-1.67-3.46,.63-1.15,.75-2.57,1.14-4.05,3.55,1.27,6.99,3.12,10.94,2.65,2.21,.45,4.41,.45,6.62,0,3.29,.44,5.99-1.14,8.34-2.97,3.09-2.42,2.22-9.26-1.11-11.53-5.38-3.67-11.71-5.31-17.42-8.28-8.66-4.5-11.12-14.13-5.42-22.01,3.04-4.2,7.84-5.26,12.68-5.96,2.71-.25,5.41-.28,8.12,.02Z"/><path class="cls-11" d="M462.68,1070.99c-1.7-.58-2.56-1.75-3.2-3.49-4.48-12.11-11.47-22.7-20.09-32.25-1.87-2.07-3.31-4.55-5.88-6.01-.98-.56-1-1.53,.49-1.75,9.86,2.98,19.73,5.95,29.59,8.94,.41,.12,.77,.41,1.15,.62,5.03,8.73,9.99,17.51,13.36,27.04,.94,2.65,2.93,5.2,1.7,8.33-1.33,.03-2.67,.05-4,.08-1.32-.73-2.82,.02-4.16-.51-1.33-.06-2.66-.13-3.99-.19-1.11-.64-2.4,0-3.53-.49l-1.44-.3Z"/><path class="cls-42" d="M313.81,1040.96c.97-3.21,4.01-4.3,6.45-5.66,11.63-6.47,24.04-10.18,37.5-10.65,14-.49,27.27,2.01,39.89,7.92,5.97,2.8,11.29,6.68,16.41,10.81,6.13,4.93,11.06,10.96,15.71,17.25,1.57,2.12,2.63,4.48,3.53,6.94-2.59,.79-4.95-.84-7.48-.73-3.24-6.31-7.79-11.67-13-16.34-7.64-6.84-16.26-12.23-26.06-15.57-6.55-2.24-13.24-3.73-20.18-4.04-11.09-.5-21.94,.52-32.35,4.71-5.16,2.07-9.96,4.85-14.89,7.38-1.87-.6-3.86-.87-5.54-2Z"/><path class="cls-25" d="M357.51,589.35c1.02-5.17,.96-10.49,2.68-15.57,1.86-5.5,4.41-10.6,7.66-15.38,.68-1,1.55-1.22,2.62-1.17,7.45,.13,14.78,1.4,22.12,2.43,1.95,.27,4.11-.32,5.89,.98-3.87,.2-6.62,2.64-9.31,4.95-7.46,6.42-11.16,14.53-10.48,24.49,.12,1.8,0,3.61,0,5.42-7.06-2.05-14.11-4.1-21.17-6.15Z"/><path class="cls-48" d="M565.06,962.62c-5.11,.29-9.36,3.15-14.03,4.73-5.03,1.7-9.88,3.93-15.08,5.14-.6,.14-1.08,.25-1.49-.29,.78-6,3.14-11.58,4.62-17.4,.55-2.16,1.13-4.32,1.69-6.48,3.61,.62,6.54-1.48,9.63-2.64,7.96-3,15.78-6.36,23.36-10.24,1.39-.71,2.8-.87,4.29-.81-3.91,9.52-8.28,18.83-12.98,27.98Z"/><path class="cls-28" d="M1001.25,1000.25c.11,0,.23,0,.34,.03,1.81,.3,4.15-1.57,5.1-.33,.96,1.25,.4,3.69,.43,5.61,.04,2.73,.15,5.47-.03,8.18-.16,2.33,.52,3.2,2.99,3.1,4.77-.19,9.56-.06,14.34-.05q4.46,0,4.5,4.41c0,.45,.04,.91,.05,1.36-2.59,1.06-5.29,.28-7.93,.45-4.57,.29-9.16-.41-13.72,.38-.06,11.78-.98,23.6,.5,35.34,.7,5.53,3.27,7.45,8.87,7.82,3.53,.23,6.94-.09,10.18-1.72,.78-.39,2.27-2.15,2.75,.21,.36,1.73,2.95,3.91,.18,5.29-7.15,3.56-14.7,4.3-22.11,.93-4.83-2.19-6.52-6.79-7.21-11.75-.16-1.12-.2-2.26-.3-3.39-.46-5.78-.16-11.56-.19-17.34-.06-11.69-.04-23.38,.01-35.07,0-1.23-.67-2.85,1.25-3.45Z"/><path class="cls-4" d="M334.38,1047.23c4.37-.27,7.99-2.89,12.21-3.79,23.27-4.98,43.29,1.16,60.5,17.21,.94,.88,1.89,2.01,1.68,3.56-15.88-2.64-31.67-5.73-47.31-9.54-8.25-2.01-16.47-4.13-24.7-6.25-.84-.22-1.59-.78-2.38-1.19Z"/><path class="cls-28" d="M1302.76,1041.84c.14-4.44,1.1-8.72,2.99-12.72,3.8-8.05,10.2-12.52,19.07-13.44,2.47-.2,4.95-.25,7.42,.03,2.2,.49,4.42,.89,6.59,1.49,3.1,.87,3.92,4.64,1.62,6.91-.76,.75-1.18-.12-1.68-.28-4.73-1.47-9.53-2.05-14.45-1.25-6.36,1.03-10.45,4.96-12.4,10.81-2.42,7.25-2.49,14.77-.06,22.03,2.26,6.74,7.33,10.38,14.43,11,4.43,.39,8.82,.44,12.94-1.74,1.07-.57,2.68-.77,2.79,1.09,.1,1.62,2.66,3.75-.24,4.86-8.23,3.17-16.69,4.01-24.98,.46-8.72-3.74-12.27-11.3-13.71-20.13-.2-1.23-.25-2.48-.36-3.73-.24-1.79-.28-3.59,.02-5.38Z"/><path class="cls-26" d="M340.46,554.6c-2.57,6.69-5.55,13.26-6.52,20.46-.39,2.88-.67,5.77-1,8.66-7.81-1.61-15.63-3.21-23.43-4.84-.41-.09-.77-.43-1.15-.66-.72-.69-.91-1.59-.79-2.51,1.07-7.78,2.64-15.43,6.01-22.6,.71-.47,1.47-.34,2.23-.18,3.35,.09,6.71,.18,10.06,.27,1.16,.53,2.42,.06,3.6,.41,3.66,.41,7.38,.11,10.99,.99Z"/><path class="cls-29" d="M515.32,1074.45c-1.79,.03-3.58,.05-5.37,.08-2.25-.78-4.64,.09-6.9-.52-.93-.08-1.86-.16-2.8-.25-5.79-.62-5.76-.63-7.54-6.32-2.27-7.23-4.78-14.37-8.23-21.15-.68-1.34-1.82-2.73-.59-4.38,8.23,1.57,16.45,3.18,24.54,5.37,2.45,7.63,5.36,15.12,7.06,22.97,.3,1.4,.98,2.84-.19,4.19Z"/><path class="cls-7" d="M483.9,1041.92c1.04,4.93,4.27,8.95,5.66,13.76,1.07,3.69,2.85,7.19,3.78,10.9,.97,3.89,1.94,7.34,6.92,7.18-2.18,.01-4.37,.03-6.55,.04-1.16-.55-2.45-.02-3.62-.46-1.78-.07-3.57-.13-5.35-.2-1.34-.67-2.83-.02-4.2-.45-.24-.1-.49-.2-.73-.29-2.73-10.99-7.79-20.95-13.43-30.67-.84-1.44-2.57-2.62-1.63-4.69,5.65,1.36,11.3,2.72,16.94,4.1,.76,.19,1.48,.51,2.22,.78Z"/><path class="cls-15" d="M1180.66,1071.69c.02-16.32,.12-32.65-.02-48.97-.03-2.95,.99-4.03,3.69-4.8,7.53-2.14,15.09-2.8,22.77-1.28,1.09,.22,3.38-.18,2.56,2.39-.65,2.05-.26,5.2-4,4.1-1.21-.35-2.33-.79-3.6-.53-2.44-.43-4.88-.45-7.32,0-.56,0-1.13-.07-1.69-.02-5.13,.48-5.15,.49-5.13,5.63,.05,14.43,.12,28.86,.18,43.29-2.45,1.2-4.94,.85-7.44,.19Z"/><path class="cls-6" d="M526.25,1050.79c7.45,1.33,14.9,2.67,22.36,3.98,.77,.14,1.6,0,2.18,.7-.6,1.65-.47,3.29,0,4.96,1.07,3.8,1.85,7.66,2.56,11.54,.24,1.32,.63,2.67-.46,3.84-5.21,.03-10.42,.06-15.63,.09-1.81-.8-3.78,.07-5.62-.52-1.91-5.06-2.26-10.52-4.06-15.61-.63-1.8-1.14-3.65-1.66-5.49-.33-1.19-.71-2.42,.33-3.49Z"/><path class="cls-36" d="M526.25,1050.79c.58,4.99,2.82,9.53,3.82,14.4,.68,3.31,1.82,6.55,1.64,10.01-.62,.57-1.31,.38-2.01,.21-2.27-.06-4.53-.13-6.8-.19-2.24-.81-4.62,.09-6.88-.53-.24-.08-.47-.16-.71-.24-1.1-8.12-4.12-15.7-6.58-23.43-.36-1.14-1.69-2.39-.29-3.73,5.95,1.11,11.99,1.74,17.81,3.5Z"/><path class="cls-38" d="M313.81,553.15c-1.17,5.76-3.59,11.19-4.43,17.03-.39,2.67-1.21,5.29-1.03,8.04-5.98-.79-11.92-1.75-17.72-3.42-.86-2.61,.03-5.11,.47-7.64,.62-3.55,1.5-7.04,2.4-10.52q1.18-4.53,5.86-4.53c1.15,.05,2.31-.12,3.46,.14,3.14,.09,6.27,.18,9.41,.27,.5,.28,1.17,.14,1.59,.64Z"/><path class="cls-43" d="M276.23,572.31c-6.32-.87-12.54-1.97-18.26-5.11-2.72-1.49-4.7-3.49-4.51-6.45,.23-3.62,2.89-5.97,6.08-7.36,2.24-.98,4.68-1.59,7.18-1.76,2.75-.64,5.59,.27,8.33-.5h7.17c.36,.27,.38,.56,.07,.88-1.85,.77-2.55,2.28-2.99,4.15-1.24,5.35-2.32,10.72-3.06,16.15Z"/><path class="cls-16" d="M552.89,1075.81c-.39-5.98-2.2-11.67-3.52-17.46-.35-1.54-.64-2.69,1.42-2.88,6.63,.7,13.13,1.77,18.95,5.39,1.71,1.06,3.01,2.36,3.8,4.19,.23,1.12,.33,2.24-.07,3.35-3.67,5.31-8.87,7.49-15.18,7.43-1.8-.02-3.6,0-5.39-.01Z"/><path class="cls-30" d="M276.23,572.31c-1.57-2.68-.01-5.31,.31-7.9,.4-3.21,1.76-6.32,2.1-9.53,.29-2.76,1.57-3.4,3.91-3.2,1.98-.46,3.96-.31,5.95-.07,3.58,.08,7.15,.15,10.73,.23,.28,.02,.41,.12,.4,.28,0,.2-.05,.3-.12,.3-2.93-.42-4.24,.68-4.98,3.74-1.5,6.18-2.6,12.42-3.9,18.63-4.88-.39-9.63-1.48-14.4-2.48Z"/><path class="cls-32" d="M802.75,944.17c.08-1.13,.24-2.25,.24-3.38,.01-75.76,.01-151.53,0-227.29,0-.91-.09-1.81-.13-2.72,1.17,.98,.69,2.33,.69,3.52,.02,75.48,.02,150.96,0,226.44,0,1.17,.54,2.55-.81,3.44Z"/><path class="cls-32" d="M1502.9,944.17c.08-1.13,.24-2.25,.24-3.38,.01-75.76,.01-151.53,0-227.29,0-.91-.09-1.81-.13-2.72,1.17,.98,.69,2.33,.69,3.52,.02,75.48,.02,150.96,0,226.44,0,1.17,.54,2.55-.8,3.44Z"/><path class="cls-32" d="M1341.01,944.17c.08-1.47,.24-2.94,.24-4.4,.01-62.01,0-124.02,.04-186.04,0-1.28-.62-2.72,.54-3.86,0,63.39,0,126.79-.03,190.18,0,1.37,.69,2.99-.79,4.12Z"/><path class="cls-32" d="M1085.76,836.36c1.15-1.11,2.58-.54,3.86-.54,50.04-.03,100.08-.03,150.12-.04,1.46,0,2.97,.28,4.37-.43-.96,1.78-2.64,.98-3.98,.98-51.46,.04-102.91,.04-154.37,.03Z"/><path class="cls-32" d="M1001.25,1000.25c-1.55,1.04-1.04,2.64-1.04,4.04-.03,17.27-.03,34.54-.03,51.81-.89-.96-.54-2.15-.54-3.25-.02-16.42-.03-32.84,.02-49.26,0-1.24-.9-3.18,1.59-3.35Z"/><path class="cls-32" d="M1485.29,1071.81q6.94,.45,6.94-6.31c.01-9.48,.04-18.95,.06-28.43,.89,1.09,.49,2.39,.5,3.59,.03,9.14,.02,18.29,.02,27.43q0,4.53-4.7,4.42c-.98-.02-2.07,.29-2.82-.7Z"/><path class="cls-32" d="M197.05,893.69c-.53,5.92-.46,11.83,0,17.75-.06,.67-.13,1.35-.19,2.02-1.19-5.47-.32-11-.49-16.5-.06-1.97-.65-4.06,.51-5.96,.06,.9,.11,1.8,.17,2.7Z"/><path class="cls-32" d="M1007.32,1023.38c2.07-1.22,4.33-.45,6.49-.54,5.05-.2,10.1-.21,15.15-.29-.88,1.33-2.24,.79-3.4,.8-6.08,.05-12.16,.02-18.25,.02Z"/><path class="cls-32" d="M966.88,1023.37c2.33-1.21,4.82-.43,7.24-.53,4.85-.21,9.7-.2,14.55-.29-.89,1.34-2.26,.79-3.43,.8-6.12,.05-12.24,.02-18.36,.02Z"/><path class="cls-32" d="M1644,908.79c-4.95,.81-9.89,.8-14.84,0,4.95,0,9.89,0,14.84,0Z"/><path class="cls-32" d="M1388.93,707.88c-4.29,0-8.59-.02-12.88-.03,4.3-.79,8.59-.84,12.88,.03Z"/><path class="cls-32" d="M1508.63,639.09v-10.19c.93,3.4,.93,6.8,0,10.19Z"/><path class="cls-32" d="M1263.89,1045.88c.07-2.71,.14-5.43,.21-8.14,.8,2.74,1.11,5.46-.21,8.14Z"/><path class="cls-32" d="M1172.66,907.42c-2.75,1-5.58,.33-8.38,.44,2.74-1.05,5.58-.33,8.38-.44Z"/><path class="cls-32" d="M1145.74,1015.67c-2.7,0-5.4,.02-8.1,.03,2.7-.86,5.4-.8,8.1-.03Z"/><path class="cls-32" d="M1593.84,1015.67c-2.7,0-5.4,.02-8.1,.03,2.7-.86,5.4-.8,8.1-.03Z"/><path class="cls-32" d="M275.05,551.13c-2.72,1.07-5.55,.33-8.33,.5,2.72-1.15,5.55-.34,8.33-.5Z"/><path class="cls-32" d="M869.8,1015.72c-2.71,0-5.41-.02-8.12-.02,2.71-.82,5.41-.86,8.12,.02Z"/><path class="cls-32" d="M789.86,1015.67c-2.7,0-5.4,.02-8.1,.03,2.7-.86,5.4-.8,8.1-.03Z"/><path class="cls-32" d="M964.3,907.41c-2.88,.79-5.76,.81-8.64,.01,2.88,0,5.76,0,8.64-.01Z"/><path class="cls-32" d="M1087.73,1071.16c2.4,1.47,4.97,.67,7.49,.57-2.58,.94-5.18,2.01-7.49-.57Z"/><path class="cls-32" d="M893.61,1040.47c-.02,2.48-.05,4.95-.07,7.43-.75-2.48-.85-4.96,.07-7.43Z"/><path class="cls-32" d="M805.81,637.71c0-2.48,0-4.95,0-7.43,.8,2.48,.8,4.95,0,7.43Z"/><path class="cls-32" d="M1162.84,907.9c-2.56-.19-5.18,.53-7.68-.49,2.56,.17,5.19-.69,7.68,.49Z"/><path class="cls-32" d="M529.71,1075.41c.67-.07,1.34-.14,2.01-.21,1.81,.52,3.77-.12,5.54,.7-2.51-.21-5.1,.62-7.55-.49Z"/><path class="cls-32" d="M1332.23,1015.7c-2.47,0-4.95-.02-7.42-.03,2.48-.77,4.95-.81,7.42,.03Z"/><path class="cls-32" d="M760.36,630.28c0,2.48,0,4.95,0,7.43-.8-2.48-.8-4.95,0-7.43Z"/><path class="cls-32" d="M959.34,1071.69c2.49,.32,4.97,.58,7.44-.19-2.44,1.71-4.93,1.39-7.44,.19Z"/><path class="cls-32" d="M1053.63,1071.5c2.46,.81,4.96,.44,7.45,.27-2.52,1.07-5.03,1.54-7.45-.27Z"/><path class="cls-32" d="M1180.66,1071.69c2.49,.32,4.97,.58,7.44-.19-2.44,1.7-4.93,1.39-7.44,.19Z"/><path class="cls-32" d="M1418.37,1071.69c2.49,.4,4.97,.4,7.46,0-2.49,1.35-4.97,1.35-7.46,0Z"/><path class="cls-32" d="M1451.84,1071.69c2.49,.32,4.97,.58,7.44-.19-2.44,1.71-4.93,1.39-7.44,.19Z"/><path class="cls-32" d="M1628.73,1071.81c2.49,.1,5,.51,7.46-.3-2.42,1.82-4.93,1.29-7.46,.3Z"/><path class="cls-32" d="M1664.28,1071.69c2.49,.32,4.97,.58,7.44-.19-2.44,1.71-4.92,1.39-7.44,.19Z"/><path class="cls-32" d="M1194.74,1022.62c2.44-.78,4.88-.78,7.32,0-2.44,0-4.88,0-7.32,0Z"/><path class="cls-32" d="M516.03,1074.68c2.31,0,4.63-.19,6.88,.53-2.29-.19-4.66,.6-6.88-.53Z"/><path class="cls-32" d="M503.06,1074c2.31,0,4.64-.22,6.9,.52-2.3-.17-4.67,.6-6.9-.52Z"/><path class="cls-32" d="M1380.73,1015.7l-6.76,.04c2.25-.92,4.5-.86,6.76-.04Z"/><path class="cls-3" d="M791.93,1038.94c-2.26,0-4.51,0-6.77,0,2.26-.89,4.51-.89,6.77,0Z"/><path class="cls-3" d="M1147.81,1038.94c-2.25,0-4.51-.01-6.76-.02,2.26-.85,4.51-.88,6.76,.02Z"/><path class="cls-3" d="M1595.91,1038.94c-2.25,0-4.51-.01-6.76-.02,2.26-.85,4.51-.88,6.76,.02Z"/><path class="cls-32" d="M921.71,1015.7c-2.25,.01-4.51,.03-6.76,.04,2.25-.92,4.5-.86,6.76-.04Z"/><path class="cls-32" d="M1245.48,1015.7c-2.02,0-4.03-.02-6.05-.03,2.02-.76,4.04-.79,6.05,.03Z"/><path class="cls-32" d="M288.5,551.61c-1.98,.02-3.97,.05-5.95,.07-.11-.18-.22-.36-.33-.54,2.1,.12,4.26-.62,6.28,.47Z"/><path class="cls-32" d="M1463.28,630.95v6.09c-.85-2.03-.85-4.06,0-6.09Z"/><path class="cls-3" d="M798.85,1034.78c.85,1.41,.45,2.96,.47,4.45,.01,.94-.53,1.06-1.25,.55,1.41-1.48,.4-3.35,.79-5Z"/><path class="cls-3" d="M864.61,1066.44c-2.21,.78-4.41,.78-6.62,0,2.21,0,4.41,0,6.62,0Z"/><path class="cls-32" d="M1302.76,1041.84c0,1.79-.02,3.59-.02,5.38-.81-1.8-.84-3.59,.02-5.38Z"/><path class="cls-32" d="M1352.57,1041.85c0,1.78,0,3.57,0,5.35-.78-1.79-.78-3.57,0-5.35Z"/><path class="cls-44" d="M197.61,882.62c-.1,1.87,.63,3.81-.48,5.59l-.04-5.16c.05-.29,.22-.45,.52-.44Z"/><path class="cls-32" d="M882.25,1060.88c.02-1.8,.03-3.59,.05-5.39,.8,1.8,.86,3.6-.05,5.39Z"/><path class="cls-32" d="M1569.79,1053.46c.02,1.79,.03,3.58,.05,5.37-.88-1.78-.81-3.57-.05-5.37Z"/><path class="cls-32" d="M1156,705.15c-1.66-.03-3.36,.43-4.94-.45,1.65,.1,3.37-.56,4.94,.45Z"/><path class="cls-32" d="M1649.45,704.71c-1.59,.89-3.3,.39-4.96,.44,1.58-1.01,3.3-.35,4.96-.44Z"/><path class="cls-32" d="M1662.15,705.12c-1.66,0-3.36,.48-4.95-.41,1.65,.08,3.37-.54,4.95,.41Z"/><path class="cls-9" d="M564.06,824.86c.66,1.55,.75,3.09-.08,4.62,.03-1.54,.06-3.08,.08-4.62Z"/><path class="cls-32" d="M1121.74,1053.44c0,1.57-.02,3.13-.02,4.7-.78-1.57-.81-3.14,.02-4.7Z"/><path class="cls-32" d="M198.24,871.88c.03,1.4,.1,2.8-.54,4.11,.15-1.37-.49-2.85,.54-4.11Z"/><path class="cls-27" d="M629.94,708.69c-.69-.53-.51-1.31-.58-2.01,0-.67,0-1.34,.01-2,1,1.23,.54,2.66,.56,4.02Z"/><path class="cls-32" d="M197.02,918.91c.63,1.31,.54,2.7,.48,4.09-.93-1.27-.34-2.73-.48-4.09Z"/><path class="cls-3" d="M565.06,811.16c-.07,1.42,.46,2.92-.49,4.24,.1-1.42-.55-2.93,.49-4.24Z"/><path class="cls-32" d="M471.64,1071.97c1.41-.04,2.84-.23,4.16,.51-1.39-.13-2.87,.5-4.16-.51Z"/><path class="cls-3" d="M529.71,1015.98c1.34-.01,2.68-.03,4.02-.04-1.33,.96-2.67,.92-4.02,.04Z"/><path class="cls-32" d="M1728.38,876.87c-.86-1.36-.39-2.86-.48-4.31,1.04,1.34,.41,2.86,.48,4.31Z"/><path class="cls-32" d="M1619.2,943.65c1.44,.09,2.95-.39,4.31,.48-1.45-.07-2.97,.56-4.31-.48Z"/><path class="cls-32" d="M1610.9,769.68c-.74-1.5-.74-2.99,0-4.49,0,1.5,0,2.99,0,4.49Z"/><path class="cls-32" d="M1660.86,739.57c1.44,.07,2.94-.35,4.29,.48-1.44-.08-2.96,.55-4.29-.48Z"/><path class="cls-32" d="M630.2,740.08c.03-1.43-.46-2.91,.49-4.23-.09,1.42,.55,2.92-.49,4.23Z"/><path class="cls-32" d="M1144.63,704.7c-1.35,.81-2.82,.45-4.26,.45,1.33-.96,2.83-.37,4.26-.45Z"/><path class="cls-32" d="M480.54,1072.7c1.43-.11,2.85-.21,4.19,.45-1.4-.09-2.88,.49-4.19-.45Z"/><path class="cls-32" d="M313.81,553.15c-.53-.21-1.06-.43-1.58-.64,1.2,.03,2.47-.46,3.57,.42-.66,.07-1.32,.15-1.99,.22Z"/><path class="cls-32" d="M916.89,863.89c-.76-1.12-.46-2.39-.48-3.61,.97,1.09,.44,2.39,.48,3.61Z"/><path class="cls-32" d="M573.47,1068.4c.02-1.12,.05-2.23,.07-3.35,.78,1.13,.83,2.25-.07,3.35Z"/><path class="cls-32" d="M1484.68,1036.1c.8,1.12,.43,2.39,.43,3.61-.91-1.11-.4-2.39-.43-3.61Z"/><path class="cls-32" d="M464.13,1071.29c1.21-.09,2.42-.16,3.52,.49-1.19-.07-2.46,.45-3.52-.49Z"/><path class="cls-32" d="M1042.52,809.77c0,1.22,.23,2.46-.49,3.58,.05-1.21-.48-2.5,.49-3.58Z"/><path class="cls-32" d="M1459.26,1038.59c-.72-1.12-.49-2.37-.49-3.58,.97,1.08,.44,2.37,.49,3.58Z"/><path class="cls-32" d="M630.09,714.16c.05-1.11,.09-2.22,.14-3.32,.93,1.09,.42,2.37,.45,3.57-.19-.09-.39-.17-.59-.25Z"/><path class="cls-32" d="M1145.15,943.67c1.22,0,2.48-.3,3.6,.46-1.21-.04-2.5,.48-3.6-.46Z"/><path class="cls-32" d="M197.61,882.62c-.17,.15-.34,.29-.52,.43,.03-1.24-.5-2.54,.47-3.66,.02,1.07,.03,2.15,.05,3.22Z"/><path class="cls-32" d="M1727.97,886.14c-.05-1.22-.36-2.46,.41-3.58-.03,1.21,.45,2.47-.41,3.58Z"/><path class="cls-32" d="M874.02,862.73c.83,1.13,.4,2.41,.45,3.63-.94-1.11-.42-2.41-.45-3.63Z"/><path class="cls-32" d="M329.47,553.61c-1.22,.02-2.48,.44-3.6-.41,1.21,.03,2.48-.46,3.6,.41Z"/><path class="cls-32" d="M197.71,926.41c.63,1.07,.59,2.25,.54,3.43-.96-1.02-.43-2.28-.54-3.43Z"/><path class="cls-3" d="M564.57,776.11c.86,1.09,.48,2.34,.46,3.54-.92-1.08-.4-2.35-.46-3.54Z"/><path class="cls-32" d="M490.08,1073.34c1.23,0,2.5-.36,3.62,.46-1.22-.04-2.51,.49-3.62-.46Z"/><path class="cls-32" d="M1170.16,944.13c1.12-.77,2.37-.46,3.59-.41-1.11,.86-2.38,.38-3.59,.41Z"/><path class="cls-32" d="M299.51,552.42c-.1-.19-.19-.38-.29-.58,1.21,.02,2.48-.47,3.59,.4-1.1,.06-2.2,.12-3.31,.17Z"/><path class="cls-32" d="M1647.63,944.13c1.12-.76,2.38-.46,3.6-.44-1.11,.9-2.38,.4-3.6,.44Z"/><path class="cls-3" d="M1143.36,802.8c-17.97,0-35.94,0-53.92-.02-1.44,0-3.44,.68-2.98-2.17,2.32-14.42,6.6-28.04,15.92-39.66,21.05-26.24,57.07-25.66,75.45-11.95,12.71,9.48,19.29,22.64,21.89,37.97,.68,4.02,.77,8.13,1.28,12.18,.34,2.7-.34,3.74-3.38,3.72-18.08-.15-36.17-.07-54.26-.07Z"/><path class="cls-3" d="M1517.99,1042.97c0-5.57,.08-11.15-.04-16.72-.04-1.97,.57-2.75,2.57-3.11,4.87-.88,9.76-1.03,14.61-.4,6.87,.89,12.58,6.63,14.27,13.92,1.3,5.63,1.23,11.29-.17,16.89-2.58,10.35-11.14,15.21-22.06,12.6-.44-.11-.87-.27-1.31-.39-7.28-2.05-7.88-2.82-7.88-10.17,0-4.21,0-8.42,0-12.63Z"/><path class="cls-3" d="M1241.15,1039.84c-4.21,0-8.42-.13-12.62,.05-2.31,.1-2.54-.68-2.25-2.73,1.49-10.54,11.02-17.36,20.52-14.53,5.85,1.74,11.33,10.53,10.14,16.19-.29,1.39-1.35,.98-2.15,.99-4.55,.04-9.1,.02-13.65,.02Z"/><path class="cls-3" d="M1360.22,1044.49c-.19-4.05,.37-7.85,1.85-11.48,2.9-7.1,8.6-11.08,15.71-10.99,6.98,.08,12.61,4.01,15.31,11.04,2.79,7.26,2.81,14.69,.32,22.03-2.58,7.59-8.93,12.09-16.17,11.76-8.23-.37-14.13-5.49-16.22-14.04-.68-2.78-.97-5.59-.8-8.31Z"/><path class="cls-3" d="M901.06,1044.61c-.04-4.91,.62-9.6,3.02-13.89,3.22-5.77,8.16-8.79,14.77-8.67,6.63,.11,11.62,3.33,14.37,9.28,4.02,8.71,4.02,17.68-.05,26.37-2.79,5.96-7.89,9.07-14.49,9.1-6.55,.03-11.57-2.89-14.72-8.76-2.27-4.22-2.92-8.79-2.9-13.43Z"/><path class="cls-3" d="M1154.91,1056.08c0,1.14,.02,2.27,0,3.41-.16,7.33,1.44,6.51-6.65,7.07-3.28,.23-6.55,.31-9.83-.15-5.96-.83-9.16-4.22-9.49-10.16-.28-4.96,2.75-9.01,8.09-10.35,5.14-1.28,10.35-1.11,15.55-.03,1.76,.36,2.47,1.22,2.37,3.05-.13,2.38-.03,4.77-.03,7.16Z"/><path class="cls-3" d="M1603,1056.31c0,2.05-.16,4.11,.04,6.14,.26,2.73-.67,3.96-3.53,3.97-4.3,.02-8.59,.63-12.91,.03-5.93-.83-9.29-4.24-9.65-10.07-.3-4.94,2.73-9.08,8.03-10.43,5.14-1.31,10.35-1.14,15.55-.09,1.95,.39,2.61,1.37,2.5,3.3-.14,2.38-.03,4.77-.03,7.16Z"/><path class="cls-3" d="M799.36,1056.35c0,1.14,0,2.27,0,3.41q0,6.45-6.61,6.81c-4.19,.24-8.39,.53-12.48-.75-4.59-1.44-6.71-4.22-6.97-8.96-.27-5.11,1.63-8.59,6.12-10.29,5.94-2.25,12.04-1.85,18.12-.49,1.5,.34,1.89,1.31,1.84,2.76-.09,2.5-.03,5-.03,7.5Z"/></svg>