<?xml version="1.0" encoding="UTF-8" standalone="no"?>
<svg
   id="Camada_1"
   viewBox="0 0 1920 1627"
   version="1.1"
   sodipodi:docname="nubank_logo.svg"
   inkscape:version="1.2.1 (9c6d41e410, 2022-07-14)"
   xmlns:inkscape="http://www.inkscape.org/namespaces/inkscape"
   xmlns:sodipodi="http://sodipodi.sourceforge.net/DTD/sodipodi-0.dtd"
   xmlns="http://www.w3.org/2000/svg"
   xmlns:svg="http://www.w3.org/2000/svg">
  <sodipodi:namedview
     id="namedview15"
     pagecolor="#ffffff"
     bordercolor="#000000"
     borderopacity="0.25"
     inkscape:showpageshadow="2"
     inkscape:pageopacity="0.0"
     inkscape:pagecheckerboard="0"
     inkscape:deskcolor="#d1d1d1"
     showgrid="false"
     inkscape:zoom="0.47879533"
     inkscape:cx="960.74454"
     inkscape:cy="812.45571"
     inkscape:window-width="1920"
     inkscape:window-height="1008"
     inkscape:window-x="0"
     inkscape:window-y="0"
     inkscape:window-maximized="1"
     inkscape:current-layer="Camada_1" />
  <defs
     id="defs4">
    <style
       id="style2">.cls-1{fill:#613e91;}</style>
  </defs>
  <path
     class="cls-1"
     d="m 1183.569,1132.0888 c -1.1921,-0.208 -2.3761,-0.52 -3.5841,-0.6161 -5.6161,-0.464 -11.2561,-0.672 -16.8482,-1.336 -10.7202,-1.272 -21.3123,-3.296 -31.6884,-6.3441 -40.8966,-12.0001 -73.169,-35.9604 -97.7133,-70.5609 -15.9842,-22.5443 -26.9364,-47.4646 -34.44046,-73.96894 -3.88805,-13.74418 -6.73609,-27.72037 -8.65611,-41.88055 -1.61602,-11.92016 -2.62404,-23.88831 -3.36805,-35.88847 -1.20001,-19.42426 -1.65602,-38.87251 -1.81602,-58.32077 -0.168,-20.58426 -0.32,-41.16853 -0.328,-61.7528 -0.032,-89.11317 -0.008,-178.21834 -0.008,-267.3315 0,-1.31202 0,-2.61604 0,-3.71205 0.264,-0.28001 0.32,-0.35201 0.392,-0.41601 0.064,-0.064 0.136,-0.16 0.216,-0.168 0.64801,-0.072 1.30402,-0.184 1.95203,-0.184 49.27261,0 98.55331,0 147.82591,0 0.264,0 0.52,0.168 1.088,0.36 0.064,1.28802 0.192,2.66404 0.192,4.04006 0.01,35.81646 0,71.62493 0.01,107.4414 0.01,36.28048 -0.016,72.56895 0.072,108.84943 0.072,30.26439 0.256,60.52879 0.448,90.80119 0.072,11.36814 0.2161,22.74429 0.4801,34.11244 0.296,12.68017 0.672,25.36033 2.152,37.9765 3.976,33.88844 13.1922,66.08086 31.4004,95.24925 24.0883,38.58452 58.3368,63.58482 102.1613,75.56902 10.1522,2.776 20.4563,4.8 30.9524,5.696 7.3841,0.632 14.7922,1.0401 22.1923,1.5441 0.536,0.04 1.072,0.088 2.0161,0.176 -0.7521,0.864 -1.2321,1.504 -1.7921,2.064 -26.4243,26.7203 -57.7527,44.7366 -94.4812,53.1367 -9.7041,2.216 -19.5363,3.68 -29.4964,4.28 -3.64,0.216 -7.2561,0.7841 -10.8801,1.1921 h -8.4641 z"
     id="path6"
     style="stroke-width:0.800011" />
  <path
     class="cls-1"
     d="m 382.31846,776.75611 c 0.35201,-2.58404 0.86401,-5.16807 1.03202,-7.76011 0.536,-8.52811 0.72801,-17.08822 1.44802,-25.60033 5.88807,-70.14492 38.3845,-124.00963 98.87329,-160.5381 18.97625,-11.45615 39.53652,-19.08025 61.2408,-23.46431 7.06409,-1.42402 14.26419,-2.25603 21.44028,-2.99204 5.96808,-0.61601 12.00016,-0.76001 18.00024,-1.00001 1.82402,-0.072 3.66405,0.224 5.96008,0.392 -0.84802,1.06402 -1.31202,1.72802 -1.86403,2.32803 -23.82431,25.88034 -38.75251,56.27274 -46.1366,90.52919 -2.73604,12.68816 -4.48006,25.49633 -5.66408,38.4165 -1.08801,11.91216 -1.16001,23.84031 -1.28001,35.76847 -0.14401,14.66419 -0.032,29.32838 -0.024,43.99258 0.088,115.52151 0.184,231.04302 0.272,346.56452 0,0.928 0,1.864 0,2.584 -0.28,0.272 -0.344,0.3441 -0.41601,0.4001 -0.072,0.056 -0.144,0.144 -0.224,0.152 -0.84001,0.064 -1.68002,0.176 -2.52003,0.168 -49.27265,-0.024 -98.54529,-0.048 -147.82594,-0.096 -0.16,0 -0.32,-0.168 -0.75201,-0.4081 -0.056,-1.032 -0.176,-2.224 -0.176,-3.416 -0.008,-28.4804 0,-56.9607 -0.008,-85.4411 0,-62.79284 0,-125.57766 -0.024,-188.37048 0,-10.62414 -0.16,-21.24028 -0.312,-31.86442 -0.048,-3.19204 -0.29601,-6.38408 -0.51201,-9.56812 -0.048,-0.72801 -0.36,-1.44002 -0.54401,-2.16003 0,-6.20808 0,-12.40816 0,-18.61624 z"
     id="path8"
     style="stroke-width:0.800011" />
  <path
     class="cls-1"
     d="m 592.38521,554.9532 c 0.99202,-1.12001 1.56002,-1.83202 2.20003,-2.47203 26.48835,-26.66435 57.88876,-44.56858 94.61724,-52.88869 9.80013,-2.21603 19.72026,-3.81605 29.79239,-4.15206 8.07211,-0.272 16.17621,-0.78401 24.23232,-0.384 49.27264,2.44003 91.8572,20.14426 126.19365,56.16073 19.06425,19.99226 32.96843,43.26457 43.20057,68.8169 8.1281,20.31227 13.60017,41.33654 16.97622,62.94483 1.92802,12.35216 3.28004,24.76832 3.91205,37.24048 0.72001,14.26419 1.56802,28.52838 1.75202,42.80857 0.42401,32.70442 0.60801,65.41685 0.64001,98.12128 0.08,83.56109 0.024,167.13019 0.016,250.69129 0,1.48 -0.096,2.96 -0.144,4.352 -2.29603,0.5921 -147.36193,0.7681 -151.27398,0.2241 -0.088,-0.6481 -0.24,-1.3601 -0.27201,-2.0721 -0.048,-0.936 -0.016,-1.88 -0.016,-2.816 -0.08,-81.0251 -0.12,-162.05013 -0.248,-243.07519 -0.04,-25.56834 -0.28,-51.12867 -0.48,-76.69701 -0.08,-10.24813 -0.16801,-20.48827 -0.44801,-30.7284 -0.80001,-29.76039 -5.24807,-58.88077 -15.65621,-86.92114 -8.96811,-24.15232 -21.76828,-45.9846 -39.60851,-64.69685 -22.2883,-23.3763 -49.30465,-38.7605 -80.40906,-47.12061 -10.24813,-2.76004 -20.64027,-4.81607 -31.23241,-5.69608 -7.01609,-0.58401 -14.04818,-0.97601 -21.07227,-1.45602 -0.64801,-0.048 -1.30402,-0.08 -2.65604,-0.168 z"
     id="path10"
     style="stroke-width:0.800011" />
  <path
     class="cls-1"
     d="m 1330.5389,1070.592 c 1.456,-1.6241 2.448,-2.7281 3.448,-3.8321 22.0243,-24.3843 36.2565,-52.8087 43.8086,-84.67311 3.08,-12.99217 5.0881,-26.15234 6.3361,-39.44851 1.24,-13.20818 1.616,-26.43235 1.608,-39.68852 -0.088,-129.3297 -0.144,-258.65139 -0.208,-387.98108 0,-1.66402 0.08,-3.32005 0.128,-5.16807 h 151.394 c 0.064,1.15202 0.176,2.24003 0.176,3.32804 0.016,8.92812 0.01,17.85624 0.01,26.78435 0,79.98505 -0.04,159.9701 0.024,239.94715 0.016,25.84033 0.392,51.68867 0.416,77.52901 0.016,10.71214 -0.888,21.38428 -2.072,32.04042 -1.7121,15.4402 -4.6241,30.6244 -9.3922,45.41659 -9.1601,28.41638 -24.4963,53.1367 -45.2246,74.50503 -26.8163,27.6403 -58.9527,46.2166 -96.3212,55.6727 -9.6561,2.44 -19.4323,4.24 -29.3764,4.904 -6.8401,0.456 -13.6882,0.7041 -20.5443,0.9841 -1.192,0.048 -2.392,-0.176 -4.216,-0.328 z"
     id="path12"
     style="stroke-width:0.800011" />
</svg>
