<?xml version="1.0" encoding="UTF-8"?><svg id="Camada_1" xmlns="http://www.w3.org/2000/svg" viewBox="0 0 1920 1627"><defs><style>.cls-1{fill:#69236d;}</style></defs><path class="cls-1" d="M1733.53,931.23h-76.18v-8.88c0-49.96,.33-99.92-.22-149.87-.15-13.59-1.54-27.51-4.88-40.64-6.49-25.55-24.09-39.53-50.44-40.96-10.13-.55-20.75,.28-30.56,2.78-26.75,6.82-40.28,26.17-45.13,52.14-1.68,9-2.2,18.31-2.24,27.49-.21,49.53-.1,99.06-.1,148.58v8.68h-75.68v-304.91h73.99v28.07c4.13-3.45,7.22-5.95,10.22-8.55,48.73-42.17,128.14-31.87,164.86,4.93,20.91,20.96,31.37,46.59,34.91,75.49,.31,2.52,.96,4.99,1.45,7.49v198.14Z"/><path class="cls-1" d="M985.74,787.38c24.9,29.32,49.26,58.14,73.78,86.82,13.68,16.01,27.32,32.06,35.22,51.89,32.54,81.73-1.78,168.71-87.01,196.92-74.95,24.81-156.84-13.96-182.52-86.04-28.72-80.6,19.12-163.43,103.34-178.81,7.33-1.34,14.75-2.22,23.61-3.53-21.55-25-42.57-49.39-64.11-74.37,31.9-27.84,63.49-55.42,96.42-84.17h-150.17v-70.66h260.15c0,12.5,.04,24.66-.01,36.81-.04,9.42,2.48,20.03-1.05,27.92-3.53,7.88-13.09,13.11-20.13,19.36-27.41,24.37-54.88,48.68-82.32,73.02-1.58,1.4-3.09,2.88-5.2,4.83Zm-93.82,202.08c.16,41.06,29.29,70.59,69.26,70.22,40.04-.37,69.21-30.26,69.08-70.79-.13-40.44-30.12-70.64-69.65-70.12-40.67,.53-68.85,29.53-68.69,70.69Z"/><path class="cls-1" d="M680.37,930.72h-74.21v-32.89c-1.79,.84-2.59,1.01-3.09,1.48-37.41,35.15-81.5,43.15-129.57,29.55-57.42-16.24-90.09-56.4-102.36-113.44-9.92-46.12-3.76-90.31,23.77-129.51,34.45-49.06,82.74-71.27,142.39-67.29,54,3.6,95.81,28.48,123.59,75.38,13.28,22.42,19.47,47.09,19.65,72.99,.37,53.15,.14,106.3,.14,159.46,0,1.25-.17,2.49-.31,4.27Zm-236.87-150.69c.69,4.75,1.28,13.12,3.17,21.19,7.87,33.44,35.11,56.86,68.44,59.34,38.33,2.86,68.93-14.79,82.12-47.74,6.67-16.65,8.22-33.97,5.61-51.73-10.19-69.19-78.44-83.04-119.35-59.72-28.8,16.42-39.17,43.33-40,78.66Z"/><path class="cls-1" d="M1182.86,801.63c3.27,17.75,10.1,32.32,22.67,43.92,13.21,12.18,29.4,17.79,46.89,18.6,11.45,.53,23.17-.43,34.47-2.41,13.36-2.35,23.76-10.3,31.89-21.27,1.53-2.06,4.54-4.25,6.89-4.28,23.83-.31,47.66-.19,71.49-.16,.83,0,1.67,.22,2.85,.39-.34,1.61-.47,3.08-.97,4.41-19.45,50.88-56,81.7-109.6,91.28-41.44,7.4-80.96,1.39-116.45-22.36-38.87-26-60.11-63.4-66.38-109.14-5.69-41.51,1.53-80.86,25.07-116.11,26.83-40.17,64.92-61.95,113.07-65.88,38.99-3.18,75.18,5.01,106.86,28.7,32.29,24.15,49.63,57.49,55.6,96.62,2.51,16.4,1.84,33.28,2.84,49.93,.38,6.23-2.12,7.9-8.22,7.88-69.77-.2-139.54-.12-209.31-.12-2.92,0-5.85,0-9.66,0Zm1.17-60.94h147.86c-2.8-24.28-22.38-46.15-47.09-52.73-14.93-3.98-30.08-4.2-45.2-1.27-27.41,5.31-50.51,27.7-55.57,54Z"/><path class="cls-1" d="M188.32,930.63v-304.98h74.07v27.54c.41,.59,.81,1.17,1.22,1.76,27.45-27.52,60.69-37.01,98.99-33.06,.12,1.62,.41,3.65,.41,5.68,.03,19.72-.21,39.45,.16,59.17,.11,5.91-2.06,6.96-7.41,7.15-13.88,.51-28.05,.27-41.54,3.07-27.5,5.71-44.15,24.94-47.94,52.83-.95,6.98-1.4,14.08-1.42,21.13-.12,50.6-.06,101.19-.06,151.79,0,2.53,0,5.05,0,7.93h-76.46Z"/><path class="cls-1" d="M797.35,930.68h-76.54c-.14-2.61-.39-5.13-.39-7.65-.02-94.09,.03-188.18-.14-282.27-.01-5.69,1.43-8.09,7.3-9.42,21.3-4.79,42.44-10.3,63.65-15.52,1.82-.45,3.67-.75,6.11-1.24v316.11Z"/><path class="cls-1" d="M718.65,595.62c0-16.95-.07-33.43,.13-49.9,.02-1.42,1.6-3.49,2.97-4.12,33.89-15.49,67.86-30.82,101.81-46.17,.16-.07,.41,.03,1.22,.12,.16,1.2,.49,2.55,.49,3.9,.03,19.51-.07,39.01,.11,58.52,.04,3.89-1.23,5.51-4.98,6.66-32.15,9.84-64.22,19.93-96.33,29.91-1.58,.49-3.26,.66-5.42,1.08Z"/></svg>