<?xml version="1.0" encoding="UTF-8"?><svg id="Layer_1" xmlns="http://www.w3.org/2000/svg" xmlns:xlink="http://www.w3.org/1999/xlink" viewBox="0 0 1920 1627"><defs><style>.cls-1{fill:url(#linear-gradient-2);}.cls-2{fill:url(#linear-gradient-3);}.cls-3{fill:url(#linear-gradient);}</style><linearGradient id="linear-gradient" x1="772.55" y1="221.26" x2="1728.99" y2="1771.36" gradientUnits="userSpaceOnUse"><stop offset="0" stop-color="#ffe12b"/><stop offset=".18" stop-color="orange"/><stop offset=".58" stop-color="#ff3132"/><stop offset=".89" stop-color="#ff158b"/></linearGradient><linearGradient id="linear-gradient-2" x1="772.37" y1="221.38" x2="1728.81" y2="1771.48" xlink:href="#linear-gradient"/><linearGradient id="linear-gradient-3" x1="435.36" y1="429.31" x2="1391.81" y2="1979.41" xlink:href="#linear-gradient"/></defs><g><path class="cls-3" d="M959.65,175.69c-192.31,0-348.96,156.65-348.96,348.96s156.65,349.66,348.96,349.66c192.31,0,349.66-156.65,349.66-349.66s-157.35-348.96-349.66-348.96Zm238.47,513.99c-76.23,8.39-158.74,10.49-238.47,10.49-79.72,0-162.24-2.1-239.17-10.49-21.68-2.1-32.87-7.69-35.66-30.77-4.2-44.06-4.2-88.81-4.2-134.27s0-89.51,4.2-133.57c2.8-23.08,13.99-28.67,35.66-30.77,76.92-8.39,159.44-10.49,239.16-10.49,79.72,0,162.24,2.1,238.46,10.49,22.38,2.1,33.57,7.69,36.37,30.77,3.5,44.06,3.5,88.81,3.5,133.57s0,90.21-3.5,134.27c-2.8,23.08-13.99,28.67-36.36,30.77Z"/><path class="cls-1" d="M818.39,524.65c0-76.92,61.54-141.26,141.26-141.26,79.72,0,141.26,64.34,141.26,141.26s-61.54,141.96-141.26,141.96c-79.72,0-141.26-64.34-141.26-141.96Z"/></g><path class="cls-2" d="M1477.64,1269.44c-37.67,0-68.27-30.61-68.27-72.39s30.61-72.39,68.27-72.39,68.27,30.61,68.27,72.39-30.61,72.39-68.27,72.39m-307.23,0c-36.49,0-67.1-28.84-67.1-72.39s30.61-72.39,67.1-72.39,67.1,29.43,67.1,72.39-30.61,72.39-67.1,72.39m-310.17,0c-37.67,0-68.27-30.61-68.27-72.39s30.61-72.39,68.27-72.39,68.27,30.61,68.27,72.39-30.61,72.39-68.27,72.39m-419.06-.59c-37.08,0-68.27-29.43-68.27-72.39s31.19-72.39,68.27-72.39,67.69,28.84,67.69,72.39-30.61,72.39-67.69,72.39m1036.47-213.06c-75.93,0-139.49,59.45-139.49,141.26s62.39,141.26,139.49,141.26,139.49-59.45,139.49-141.26-62.39-141.26-139.49-141.26m-617.41,0c-75.92,0-139.49,59.45-139.49,141.26s62.39,141.26,139.49,141.26,139.49-59.45,139.49-141.26-62.39-141.26-139.49-141.26m-334.89,4.71c-8.83,0-14.13,5.3-14.13,14.13v15.3c-15.89-19.42-45.32-34.14-74.75-34.14-71.81,0-133.6,61.21-133.6,141.26s58.27,135.37,131.84,135.37c32.96,0,58.27-15.3,72.98-31.19-.59,55.91-30.02,81.22-80.63,81.22-27.07,0-52.38-8.24-81.81-27.07-7.65-5.3-16.48-3.53-20.6,4.71l-17.66,34.73c-4.12,8.24-2.94,15.89,5.3,21.19,36.49,23.54,79.46,35.31,116.54,35.31,97.11,0,150.67-52.38,150.67-173.04v-203.64c0-8.83-5.3-14.13-14.13-14.13h-40.02Zm653.31-4.71c-28.25,0-55.91,12.36-74.16,31.19v-124.78c0-8.83-5.3-14.13-14.13-14.13h-43.55c-8.83,0-14.13,5.3-14.13,14.13v357.26c0,8.83,5.3,14.13,14.13,14.13h39.43c8.83,0,14.13-5.3,14.13-14.13v-15.3c17.07,19.42,48.85,34.14,80.05,34.14,68.86,0,128.31-62.39,128.31-141.26s-60.03-141.26-130.07-141.26m-533.83-110.06c-17.07-7.65-28.84,0-28.84,18.83v352.55c0,18.83,11.77,26.49,28.84,18.83l22.37-10.01c14.13-6.47,20.6-15.89,20.6-31.19v-307.82c0-15.3-6.47-24.72-20.6-31.19l-22.37-10.01Z"/></svg>
