<?xml version="1.0" encoding="UTF-8"?><svg id="Camada_1" xmlns="http://www.w3.org/2000/svg" viewBox="0 0 1920 1627"><defs><style>.cls-1{fill:#fff;}.cls-2{fill:#1caee5;}.cls-3{fill:#2ba8e0;}.cls-4{fill:#35bbd7;}.cls-5{fill:#11b4e8;}.cls-6{fill:#25badd;}.cls-7{fill:#15b7e5;}.cls-8{fill:#4cbdc9;}.cls-9{fill:#42bcd1;}.cls-10{fill:#19b8e4;}.cls-11{fill:#1bb8e3;}.cls-12{fill:#31a3dc;}</style></defs><path class="cls-4" d="M1134.05,645.54c2.32,.71,4.74,.45,7.11,.65,26.98,2.35,51.99,10.63,74.86,25.05,31.49,19.84,53.98,47.21,67.58,81.83,5,12.75,8.29,25.94,9.96,39.55,.94,7.7,1.54,15.43,1.33,23.18-.62,23.58-5.75,46.12-15.71,67.54-8.89,19.13-20.93,36.04-36.16,50.64-17.29,16.58-37.25,28.94-59.81,37.09-11.08,4-22.46,6.81-34.12,8.41-7.56,1.04-15.17,1.69-22.82,1.53-.06-.17-.23-.34-.12-.52,1.42-2.17,.99-4.62,.99-6.98,.02-23.06,0-46.12,.01-69.19,0-1.1-.1-2.22,.18-3.3,.33-.98,1.19-.91,1.98-.99,4.16-.43,8.33-.67,12.47-1.41,15.45-2.76,29.24-9.09,41.24-19.16,14.44-12.12,24.06-27.38,28.85-45.61,2.54-9.66,3.29-19.49,2.38-29.46-1.65-18.15-8.35-34.25-20.01-48.18-14-16.71-31.92-26.75-53.45-30.34-3.77-.63-7.57-.97-11.38-1.15-.79-.04-1.65,.05-2.04-.91-.32-1.09-.21-2.2-.21-3.3,0-22.94,0-45.88,0-68.81,0-.68,.01-1.35,0-2.03-.06-2.13-.15-2.2-2.3-2.47-1.95-.24-3.86-.79-5.85-.76-.49,0-.98-.14-1.32-.56,.04-.11,.07-.22,.07-.34h16.28Z"/><path class="cls-8" d="M1534.77,645.88c6.49,.15,12.96,.72,19.37,1.61,12.51,1.75,24.72,4.8,36.63,9.04,21.5,7.66,41.03,18.76,58.52,33.43,23.4,19.62,41.07,43.5,53.04,71.56,6.29,14.76,10.62,30.09,12.96,45.98,1.57,10.68,2.44,21.39,2.07,32.17-1.13,33.19-10.24,64.03-27.64,92.37-7.96,12.97-17.41,24.76-28.28,35.41-8.21,8.04-18.1,12.04-29.53,11.69-19.52-.6-35.77-14.74-38.3-34.24-1.61-12.43,2.04-23.42,10.93-32.37,13.21-13.31,22.86-28.72,28.34-46.69,3.77-12.36,5.34-25.02,4.53-37.88-1.43-22.85-9.16-43.43-23.4-61.41-12.54-15.83-28.33-27.38-47.17-34.76-8.62-3.37-17.55-5.55-26.71-6.74-6.35-.83-12.75-.93-19.15-.84-.61-.65-.59-1.46-.59-2.26-.02-24.63-.02-49.25,0-73.88,0-1.22,.1-2.39,1.7-2.54h8.51c1.35,.51,2.8-.11,4.15,.34Z"/><path class="cls-9" d="M1522.11,645.54c-1.22,.41-1.12,1.4-1.12,2.39,.01,25.43,0,50.86,0,76.29-11.34,.77-22.48,2.66-33.14,6.71-31.68,12.02-53.99,33.63-66.27,65.29-5.6,14.43-7.67,29.5-6.65,44.9,1.52,22.85,9.47,43.29,23.72,61.29,3.76,4.74,8.35,8.73,12.08,13.47,16.09,20.44,7.73,51.17-16.61,60.38-16.55,6.27-31.48,2.92-43.97-9.49-24.58-24.42-41.03-53.58-49.52-87.16-2.71-10.74-4.36-21.65-5.07-32.73-1.43-22.52,1.16-44.55,7.68-66.13,7.86-25.99,20.66-49.3,38.53-69.74,22.61-25.87,50.24-44.38,82.82-55.43,13.5-4.58,27.34-7.59,41.54-8.99,3.37-.33,6.74-.67,10.12-.75,.6-.01,1.25,.15,1.77-.3h4.07Z"/><path class="cls-12" d="M311.03,759.76c-6.81,7.6-12.75,15.8-17.36,24.93-6.07,12.03-9.96,24.71-11.24,38.14-3,31.53,5.98,59.27,26.5,83.35,2.96,3.47,6.48,6.42,9.22,10.08,17.15,22.88,5.07,55.68-22.89,61.84-14,3.09-26.54-.26-36.81-10.22-23.51-22.81-39.71-50.1-48.9-81.54-3.25-11.12-5.33-22.46-6.54-33.97-.26-2.51-.32-5.03-.5-7.55-.05-.66,.15-1.37-.32-1.96v-15.52c.5-2.36,.2-4.76,.32-7.13,.4-8.33,1.73-16.51,3.48-24.63,3.5-16.27,9.03-31.84,16.64-46.64,7.06-13.74,15.65-26.45,25.78-38.15,9.35-10.8,19.84-20.35,31.32-28.82,8.93-6.59,18.41-12.33,28.38-17.24,.86-.42,1.74-1.06,2.74-.24,.88,1.12,.7,2.46,.7,3.73,.01,16.68,0,33.37,0,50.05,0,12.5,0,24.99,0,37.49,0,1.36-.01,2.7-.54,3.99Z"/><path class="cls-3" d="M311.03,759.76c-.68-.85-.03-1.74-.03-2.6-.05-30.07-.04-60.13-.04-90.2,0-.92,.09-1.86-.71-2.56,.02-.99,.91-1.05,1.52-1.34,10.01-4.82,20.44-8.51,31.15-11.43,9.22-2.51,18.59-4.29,28.08-5.37,3.96-.45,7.97-.56,11.97-.54,.66,0,1.35,.21,1.98-.18h16.65c2.7,.67,5.48,.45,8.21,.67,17.54,1.45,34.54,5.26,51.02,11.41,.11,.04,.22,.12,.32,.18,.6,.79,.6,1.72,.6,2.65,0,27.71,0,55.41-.01,83.12,0,1.07,.22,2.28-1.01,2.96-4.18-2.81-8.31-5.72-12.73-8.16-13.2-7.27-27.24-11.86-42.25-13.44-27.32-2.88-52.43,3.26-75.31,18.41-6.59,4.37-12.59,9.47-18.08,15.16-.42,.44-.89,.84-1.33,1.26Z"/><path class="cls-11" d="M803.34,645.54c2.26,.7,4.62,.43,6.93,.63,26.2,2.27,50.52,10.26,73.03,23.77,10.6,6.36,20.49,13.69,29.25,22.42,10.8,10.76,14.44,23.82,10.38,38.43-4.12,14.86-14.29,24.22-29.28,27.76-14.42,3.4-26.89-.84-37.71-10.78-13.36-12.28-29.12-19.69-47.08-22.47-9.89-1.53-19.73-1.32-29.57,.35-.87-1-.59-2.22-.59-3.36-.02-23.72-.02-47.44,0-71.16,0-1.54-.04-3.07-.61-4.53,2.33-.47,4.68-.63,7.05-.73,.89-.04,1.83,.23,2.66-.33h15.54Z"/><path class="cls-1" d="M384.94,645.54c-2.58,.7-5.24,.44-7.86,.65-16.77,1.36-33.05,4.93-48.88,10.58-6.13,2.19-12.21,4.54-17.97,7.63-6.68,2.89-12.97,6.52-19.1,10.41-30.36,19.28-53.61,45-69.52,77.25-8.27,16.75-13.9,34.37-16.88,52.82-1.14,7.05-2.02,14.12-2.25,21.26-.01,.42,.05,.87-.3,1.22,0-60.02,0-120.04-.04-180.06,0-1.5,.3-1.8,1.8-1.8,60.33,.05,120.66,.04,180.99,.04Z"/><path class="cls-9" d="M1534.77,645.88c-1.38-.11-2.82,.41-4.15-.34h4.07c0,.12,.03,.23,.08,.34Z"/><path class="cls-6" d="M1117.7,645.88c2.98-.37,5.82,.85,8.78,.78,.82-.02,1.26,.39,1.28,1.23,0,.49,0,.99,0,1.48,0,24.94,0,49.89,0,74.83-.55,.68-1.34,.52-2.06,.54-6.67,.16-13.25,1-19.74,2.6-12.71,3.13-24.18,8.78-34.3,17.05-13.1,10.71-22.5,24.05-27.88,40.11-2.53,7.55-3.93,15.33-4.38,23.32-.93,16.43,2.64,31.81,10.38,46.21,7.32,13.61,17.7,24.42,30.79,32.74,10.98,6.98,22.93,11.01,35.73,12.76,2.99,.41,6,.6,9.03,.53,.83-.02,1.75-.23,2.44,.51,0,24.74,0,49.48,0,74.22,0,2.18,.51,4.51-1.47,6.23-.25,0-.49,0-.74,0-.72-.64-1.58-.6-2.42-.38-1.56,.4-3.12,.34-4.69,.1-6.84,0-13.6-.85-20.33-1.94-10.18-1.65-20.11-4.35-29.8-7.87-17.75-6.45-33.99-15.58-48.65-27.46-22.1-17.92-38.65-40.03-49.66-66.24-5.57-13.26-9.3-27.03-11.33-41.28-1.12-7.87-1.75-15.79-1.68-23.72,.16-16.56,2.64-32.79,7.62-48.63,7.44-23.67,19.43-44.74,36.16-63.05,22.93-25.09,51-41.71,83.94-50.03,10.81-2.73,21.8-4.49,32.99-4.64Z"/><path class="cls-5" d="M778.09,646.61c1.33,.31,1.19,1.39,1.2,2.36,.01,6.39,0,12.78,0,19.17,0,19.17,0,38.35,0,57.52-11.55,2.19-22.33,6.3-32.24,12.65-16.26,10.43-28,24.59-35.05,42.57-4.36,11.13-6.38,22.71-5.85,34.64,.93,21.15,8.43,39.73,22.63,55.5,9.82,10.9,21.71,18.79,35.44,23.94,.34,.13,.68,.29,1.01,.44,.65,.7,.6,1.59,.6,2.44,.01,25.2,.01,50.4,0,75.6,0,1.02,.17,2.14-.95,2.8-8.77-1.39-17.28-3.78-25.63-6.74-19.45-6.91-37.12-16.96-52.86-30.33-24.8-21.05-42.11-47.1-52.08-78.01-3.67-11.37-6.06-23.02-7.09-34.94-3.16-36.46,5.77-70.02,24.84-100.95,17.17-27.85,40.82-48.72,70.25-62.99,15.59-7.56,32.01-12.57,49.2-14.95,2.19-.3,4.36-.77,6.59-.73Z"/><path class="cls-2" d="M460.73,746.53c.53-.84,.42-1.77,.42-2.69,0-28.68,0-57.36,0-86.03,14.19,5.16,27.48,12.09,39.91,20.61,33.95,23.29,58.03,54.26,72.18,92.91,5.29,14.44,8.64,29.33,10.25,44.6,1.25,11.83,1.28,23.69,.18,35.56-2.95,31.68-13.4,60.68-31.07,87.1-7.21,10.78-15.53,20.67-24.88,29.67-14.36,13.83-37.96,14.57-53.16,1.67-10.23-8.69-14.95-19.83-14.08-33.15,.6-9.2,4.19-17.34,10.74-23.89,10.58-10.57,19.05-22.53,24.86-36.33,4.3-10.21,7-20.82,8.02-31.85,2.37-25.55-3.55-49.06-17.49-70.55-6.66-10.26-14.98-19.04-24.64-26.55-.43-.34-.83-.72-1.25-1.08Z"/><path class="cls-10" d="M764.87,976.24c.51-.78,.36-1.67,.36-2.52,0-26.11,0-52.22,0-78.33,5.7,1.76,11.43,3.31,17.36,4.16,8.6,1.22,17.15,1.18,25.75-.05,13.39-1.91,25.65-6.68,36.91-14.1,4.59-3.02,8.7-6.63,12.84-10.24,8.8-7.68,19.03-10.9,30.71-9.84,15.82,1.44,31.53,13.17,34.96,31.85,2.37,12.88-.89,24.54-10.07,34.03-9.5,9.83-20.53,17.83-32.32,24.73-17.75,10.39-36.75,17.34-57.04,20.79-11.21,1.91-22.48,2.78-33.83,2.41-8.24-.27-16.44-1.12-24.57-2.57-.36-.06-.71-.21-1.06-.33Z"/><path class="cls-7" d="M835.15,812.45c0,21.66-17.91,39.3-39.88,39.28-21.96-.02-39.72-17.66-39.69-39.42,.03-21.74,17.85-39.31,39.85-39.27,21.97,.04,39.74,17.66,39.73,39.41Z"/><path class="cls-4" d="M1118.44,980.74c1.66-.18,3.35,.27,4.98-.65,.68-.38,1.88-.43,2.12,.93-2.37-.02-4.76,.3-7.1-.28Z"/><path class="cls-1" d="M1127.77,900.56c-3.73-.13-7.49,.09-11.2-.45-6.92-1-13.73-2.55-20.3-5-13.65-5.09-25.31-13.15-35.01-23.96-11.25-12.52-18.3-27.13-21.21-43.72-1.32-7.5-1.73-15.03-1.02-22.59,1.62-17.33,7.61-33.01,18.42-46.68,14.1-17.84,32.5-28.66,54.87-32.68,5.09-.92,10.26-1.24,15.44-1.28,14.24,.34,27.82,3.45,40.35,10.3,25.48,13.93,41.05,35.21,45.8,63.84,4.24,25.57-2.25,48.69-18.33,68.95-13.53,17.05-31.31,27.37-52.62,31.66-5.01,1.01-10.11,1.37-15.21,1.61Z"/></svg>