<?xml version="1.0" encoding="UTF-8" standalone="no"?>
<svg
   id="a"
   viewBox="0 0 150 135"
   version="1.1"
   width="150"
   height="135"
   xmlns="http://www.w3.org/2000/svg"
   xmlns:svg="http://www.w3.org/2000/svg">
  <defs
     id="defs134">
    <style
       id="style132">.b,.c{fill:#ffff3c;}.d{fill:#1f3692;}.c{fill-rule:evenodd;}</style>
  </defs>
  <g
     id="g160"
     transform="translate(30.895,23.395)">
    <path
       class="d"
       d="m 14.71,0 h 58.8 c 8.13,0 14.7,6.59 14.7,14.71 v 58.81 c 0,8.12 -6.58,14.69 -14.7,14.69 H 14.71 C 6.58,88.21 0,81.63 0,73.52 V 14.71 C 0,6.59 6.58,0 14.71,0 Z"
       id="path136" />
    <g
       id="g148">
      <rect
         class="b"
         x="7.3499999"
         y="44.099998"
         width="6.8600001"
         height="29.41"
         id="rect138" />
      <path
         class="b"
         d="m 44.94,50.82 c -4.2,0 -7.34,1.09 -9.04,2.08 l 1.29,4.33 c 1.55,-0.93 4.21,-1.77 6.62,-1.77 4.01,-0.01 4.86,2.03 4.86,3.06 v 0.24 c -8.89,-0.04 -14.38,2.85 -14.38,8.55 0,3.35 2.66,6.74 7.56,6.74 2.92,0 5.39,-1.06 6.89,-2.83 h 0.07 l 0.75,2.29 h 5.58 V 60.47 c 0,-5.3 -2.6,-9.65 -10.19,-9.65 z m 3.92,14.55 c 0,0.35 -0.03,0.75 -0.11,1.11 0,0.05 -0.05,0.2 -0.07,0.23 -0.01,0.04 -0.03,0.07 -0.05,0.11 -0.61,1.44 -2.22,2.79 -4.38,2.79 -1.89,0 -3.19,-0.98 -3.19,-2.83 0,-2.08 1.77,-3.14 4.41,-3.55 0.62,-0.1 1.3,-0.16 2.03,-0.18 0.44,-0.02 0.89,-0.02 1.36,-0.01 z"
         id="path140" />
      <path
         class="b"
         d="m 74.07,51.47 v 12.92 c 0,0.52 -0.06,0.98 -0.23,1.4 -0.55,1.33 -1.9,2.83 -4.13,2.83 -2.8,0 -4.03,-2.06 -4.03,-5.5 V 51.46 h -6.69 v 12.89 c 0,1.73 0.21,3.19 0.62,4.4 0.42,1.21 0.98,2.21 1.7,2.99 0.72,0.79 1.58,1.36 2.59,1.73 1,0.36 2.12,0.54 3.33,0.54 1.05,0 1.99,-0.13 2.8,-0.39 0.81,-0.26 1.52,-0.57 2.11,-0.93 0.59,-0.36 1.09,-0.75 1.48,-1.18 0.4,-0.42 0.71,-0.8 0.94,-1.14 l 0.86,3.13 h 5.43 V 51.46 h -6.79 z"
         id="path142" />
      <path
         class="b"
         d="m 20.64,44.1 v 7.36 h -3.13 v 5.03 h 3.13 v 8.96 c 0,2.96 0.59,5.19 1.88,6.54 1.1,1.18 3.04,2.06 5.39,2.06 2.01,0 2.81,-0.3 3.72,-0.65 v -5.12 c -0.19,0.09 -0.71,0.19 -1.4,0.19 -2.38,0 -2.93,-1.48 -2.93,-4.18 v -7.81 h 4.25 V 51.45 H 27.3 v -7.36 h -6.66 z"
         id="path144" />
      <polygon
         class="c"
         points="71.54,44.1 67.4,50.04 72.19,50.04 78.01,44.1 "
         id="polygon146" />
    </g>
  </g>
</svg>
