<?xml version="1.0" encoding="UTF-8" standalone="no"?>
<svg
   id="Camada_1"
   viewBox="0 0 899.99945 716.1862"
   version="1.1"
   width="899.99945"
   height="716.18597"
   xmlns="http://www.w3.org/2000/svg"
   xmlns:svg="http://www.w3.org/2000/svg">
  <defs
     id="defs4">
    <style
       id="style2">.cls-1{fill:#175c9e;}</style>
  </defs>
  <g
     id="g20"
     transform="matrix(0.85752657,0,0,0.85752657,-368.8229,-311.8352)">
    <path
       class="cls-1"
       d="m 914.5,609.52 c -12.78,21.62 -25.57,43.24 -38.89,65.78 -9.73,-8.07 -16.7,-13.85 -23.91,-19.83 -0.81,1.7 -1.23,2.32 -1.14,2.4 19.9,18.73 13.27,36.14 -0.09,55.87 -11.92,17.61 -21.14,37.38 -29.23,57.13 -9.77,23.85 -1.6,38.75 24.13,41.68 22.47,2.56 45.46,0.66 68.21,0.49 4.57,-0.03 9.13,-1.13 15.95,-2.03 6.27,20.91 13.31,41.12 18.29,61.82 6.15,25.52 27.59,34.4 46.78,16.3 27.48,-25.92 52.87,-54.05 79.68,-80.7 3.9,-3.87 11.21,-7.45 16.14,-6.59 16.4,2.88 33.19,6.07 48.43,12.48 18.53,7.79 22.5,21.24 12.64,38.91 -6.03,10.8 -13.89,21.42 -23.25,29.39 -72.27,61.59 -155.03,78.61 -244.96,50.06 -88.52,-28.1 -138.64,-92.4 -158.32,-181.73 -1.1,-4.99 -0.82,-10.3 -2.09,-15.23 -8.75,-33.86 5.82,-56.51 32.9,-75.61 46.83,-33.03 98.93,-48.83 154.99,-53.76 1.25,1.05 2.49,2.1 3.74,3.15 z"
       id="path6" />
    <path
       class="cls-1"
       d="m 1099.55,773.04 c 11.26,-16.96 21.78,-32.79 33.52,-50.48 6.22,9.76 12,18.83 17.79,27.9 1.03,-0.33 2.06,-0.67 3.08,-1 -2.91,-9.7 -4.52,-20.06 -9.08,-28.91 -4.58,-8.88 -3.71,-16.02 -0.54,-24.84 7.87,-21.91 15.99,-43.89 21.4,-66.47 6.4,-26.72 -0.07,-36.13 -26.99,-41.55 -17.78,-3.58 -36.05,-5.52 -54.17,-6.28 -12.07,-0.5 -20.33,-3.76 -28.22,-13.58 -13.7,-17.04 -29.28,-32.63 -44.65,-48.25 -6.5,-6.6 -14.15,-12.22 -21.84,-17.45 -26.99,-18.34 -39.31,-14 -48.35,17.54 -4.75,16.56 -8.19,33.5 -11.89,50.35 -2.07,9.45 -6.2,15.77 -16.66,18.05 -60.54,13.18 -120.98,26.84 -181.45,40.33 -0.21,1.6 -0.25,-0.1 0.25,-1.63 39.23,-122.01 187.89,-196.29 308.34,-154.44 92.96,32.29 198.64,158.47 150.41,304.26 -3.55,10.73 -8.01,13.53 -18.99,10.95 -23.15,-5.44 -46.64,-9.48 -71.94,-14.48 z"
       id="path8" />
    <path
       class="cls-1"
       d="m 1004.71,598.17 c 10.28,0 20.81,1.41 30.8,-0.31 18.34,-3.16 29.81,4.39 39.21,19.19 11.99,18.89 25.11,37.08 37.7,55.59 5.71,8.39 6.5,16.33 0.68,25.7 -13.29,21.38 -24.92,43.81 -38.67,64.87 -3.57,5.47 -12.28,10.02 -19.02,10.61 -38.63,3.35 -77.37,5.61 -116.11,7.48 -3.9,0.19 -9.89,-3.69 -11.78,-7.31 -11.16,-21.46 -21.61,-43.3 -31.69,-65.29 -1.55,-3.39 -1.29,-8.93 0.43,-12.3 15.52,-30.32 31.35,-60.49 47.72,-90.35 1.91,-3.49 7.57,-6.73 11.65,-6.92 16.32,-0.78 32.71,-0.32 49.07,-0.32 0,-0.21 0,-0.42 0,-0.62 z"
       id="path10" />
    <path
       class="cls-1"
       d="m 942.6,807.55 c 34.45,-1.94 65.21,-3.68 96.75,-5.46 -5.26,19.86 -40.3,51.57 -57.07,50.76 -7.7,-0.37 -17.13,-5.74 -22.12,-11.82 -7.07,-8.61 -10.76,-19.99 -17.56,-33.48 z"
       id="path12" />
    <path
       class="cls-1"
       d="m 1037.68,576.7 h -78.52 c 1.33,-18.13 11.5,-31.87 23.74,-44.12 2.31,-2.32 9.86,-2.98 12.29,-1.03 15.68,12.56 30.6,26.05 45.78,39.23 -1.1,1.97 -2.19,3.95 -3.29,5.92 z"
       id="path14" />
    <path
       class="cls-1"
       d="m 887.83,715.07 c 11.18,23.78 21.25,45.21 31.96,67.99 -6.35,1.47 -8.96,2.58 -11.58,2.6 -14.7,0.12 -32.33,4.43 -40.9,-10.71 -8.59,-15.17 -0.43,-30.78 8.28,-44.52 2.91,-4.6 6.78,-8.58 12.24,-15.36 z"
       id="path16" />
    <path
       class="cls-1"
       d="m 1088.38,609.61 c 16.07,-6.22 30.07,-1.4 40.11,13.16 10.11,14.67 8.61,27.7 -5.28,42.87 -11.64,-18.73 -23.19,-37.31 -34.83,-56.04 z"
       id="path18" />
  </g>
  <g
     id="g50"
     transform="matrix(0.85752657,0,0,0.85752657,-368.8229,-311.8352)">
    <path
       class="cls-1"
       d="m 556.09,1102.36 -8.23,25.29 H 537 l 27.44,-80.41 h 12.41 l 27.44,80.41 h -11.1 l -8.59,-25.29 z m 26.37,-8.11 -7.88,-23.15 c -1.79,-5.25 -2.98,-10.02 -4.18,-14.68 h -0.36 c -1.07,4.77 -2.39,9.66 -3.94,14.56 l -7.87,23.27 h 24.22 z"
       id="path22" />
    <path
       class="cls-1"
       d="m 615.98,1047.24 h 10.5 v 71.58 h 34.36 v 8.83 h -44.86 z"
       id="path24" />
    <path
       class="cls-1"
       d="m 672.29,1048.31 c 4.65,-0.96 11.93,-1.67 19.09,-1.67 10.38,0 17.06,1.79 21.95,5.85 4.29,3.1 6.8,7.87 6.8,14.2 0,7.75 -5.25,14.67 -13.6,17.66 v 0.24 c 7.64,1.91 16.58,8.11 16.58,20.28 0,6.8 -2.62,12.05 -6.92,15.99 -5.49,5.13 -14.56,7.52 -27.68,7.52 -7.28,0 -12.65,-0.48 -16.23,-0.95 v -79.1 z m 10.5,33.05 h 9.43 c 10.86,0 17.42,-5.85 17.42,-13.6 0,-9.43 -7.16,-13.12 -17.66,-13.12 -4.77,0 -7.52,0.36 -9.19,0.72 v 26.01 z m 0,38.42 c 2.15,0.36 4.89,0.48 8.71,0.48 10.74,0 20.76,-3.94 20.76,-15.51 0,-11.57 -9.54,-15.63 -20.88,-15.63 h -8.59 z"
       id="path26" />
    <path
       class="cls-1"
       d="m 778.6,1089.95 h -31.14 v 29.11 h 34.84 v 8.59 h -45.34 v -80.41 h 43.55 v 8.59 h -33.05 v 25.53 h 31.14 z"
       id="path28" />
    <path
       class="cls-1"
       d="m 795.54,1048.31 c 5.37,-1.07 12.88,-1.67 20.04,-1.67 11.1,0 18.25,2.03 23.26,6.56 3.94,3.58 6.32,9.07 6.32,15.27 0,10.62 -6.68,17.66 -15.15,20.52 v 0.24 c 6.2,2.27 9.9,8.11 11.81,16.34 2.62,11.33 4.53,18.97 6.2,22.07 h -10.74 c -1.31,-2.27 -3.1,-9.19 -5.37,-19.21 -2.39,-10.98 -6.68,-15.27 -16.11,-15.63 h -9.78 v 34.84 h -10.5 v -79.34 z m 10.5,36.63 h 10.62 c 11.1,0 18.13,-6.08 18.13,-15.27 0,-10.5 -7.52,-14.91 -18.49,-15.03 -5.13,0 -8.59,0.48 -10.26,0.95 z"
       id="path30" />
    <path
       class="cls-1"
       d="m 876.31,1056.07 h -24.46 v -8.83 h 59.54 v 8.83 h -24.58 v 71.58 h -10.5 z"
       id="path32" />
    <path
       class="cls-1"
       d="m 987.26,1089.95 h -31.14 v 29.11 h 34.84 v 8.59 h -45.34 v -80.41 h 43.55 v 8.59 h -33.05 v 25.53 h 31.14 z"
       id="path34" />
    <path
       class="cls-1"
       d="m 1014.7,1047.24 v 80.41 h -10.5 v -80.41 z"
       id="path36" />
    <path
       class="cls-1"
       d="m 1032.72,1127.65 v -80.41 h 11.57 l 25.65,40.57 c 5.85,9.54 10.62,18.02 14.44,26.25 l 0.24,-0.12 c -0.96,-10.74 -1.19,-20.52 -1.19,-32.93 v -33.76 h 9.78 v 80.41 h -10.5 l -25.53,-40.8 c -5.61,-8.95 -10.98,-18.13 -15.03,-26.84 l -0.36,0.12 c 0.6,10.14 0.83,19.8 0.83,33.17 v 34.36 h -9.9 z"
       id="path38" />
    <path
       class="cls-1"
       d="m 1109.91,1115 c 4.65,2.86 11.45,5.25 18.61,5.25 10.62,0 16.82,-5.61 16.82,-13.72 0,-7.52 -4.29,-11.81 -15.27,-15.99 -13,-4.53 -21.12,-11.57 -21.12,-22.79 0,-12.41 10.38,-21.71 26.01,-21.71 8.11,0 14.2,1.91 17.78,3.82 l -2.86,8.47 c -2.62,-1.43 -7.99,-3.82 -15.27,-3.82 -10.98,0 -15.15,6.56 -15.15,12.05 0,7.52 4.89,11.21 15.99,15.51 13.6,5.37 20.52,11.81 20.52,23.62 0,12.41 -9.19,23.27 -28.16,23.27 -7.88,0 -16.35,-2.39 -20.64,-5.25 z"
       id="path40" />
    <path
       class="cls-1"
       d="m 1185.43,1056.07 h -24.46 v -8.83 h 59.54 v 8.83 h -24.58 v 71.58 h -10.5 z"
       id="path42" />
    <path
       class="cls-1"
       d="m 1270.97,1089.95 h -31.14 v 29.11 h 34.84 v 8.59 h -45.34 v -80.41 h 43.55 v 8.59 h -33.05 v 25.53 h 31.14 z"
       id="path44" />
    <path
       class="cls-1"
       d="m 1298.41,1047.24 v 80.41 h -10.5 v -80.41 z"
       id="path46" />
    <path
       class="cls-1"
       d="m 1316.43,1127.65 v -80.41 H 1328 l 25.65,40.57 c 5.85,9.54 10.62,18.02 14.44,26.25 l 0.24,-0.12 c -0.96,-10.74 -1.19,-20.52 -1.19,-32.93 v -33.76 h 9.78 v 80.41 h -10.5 l -25.53,-40.8 c -5.61,-8.95 -10.98,-18.13 -15.03,-26.84 l -0.36,0.12 c 0.6,10.14 0.83,19.8 0.83,33.17 v 34.36 h -9.9 z"
       id="path48" />
  </g>
</svg>
